<mxfile host="app.diagrams.net" modified="2021-11-14T11:58:42.346Z" agent="5.0 (Windows NT 10.0; Win64; x64) AppleWebKit/537.36 (KHTML, like Gecko) Chrome/95.0.4638.69 Safari/537.36" etag="_UyK0VWqj5qJnrMUpeuJ" version="15.7.3" type="github">
  <diagram id="Hycd34_NNZsyS8I5eNyt" name="Page-1">
    <mxGraphModel dx="1736" dy="806" grid="1" gridSize="10" guides="1" tooltips="1" connect="1" arrows="1" fold="1" page="1" pageScale="1" pageWidth="850" pageHeight="1100" math="0" shadow="0">
      <root>
        <mxCell id="0" />
        <mxCell id="1" parent="0" />
        <mxCell id="PX8XIWMq1hGFddcC8-st-16" value="" style="group" vertex="1" connectable="0" parent="1">
          <mxGeometry x="804" y="44" width="441" height="256" as="geometry" />
        </mxCell>
        <mxCell id="PX8XIWMq1hGFddcC8-st-7" value="" style="shape=image;html=1;verticalAlign=top;verticalLabelPosition=bottom;labelBackgroundColor=#ffffff;imageAspect=0;aspect=fixed;image=https://cdn3.iconfinder.com/data/icons/flat-actions-icons-9/792/Close_Icon-128.png;fontColor=#FF0000;" vertex="1" parent="PX8XIWMq1hGFddcC8-st-16">
          <mxGeometry y="38" width="212" height="212" as="geometry" />
        </mxCell>
        <mxCell id="PX8XIWMq1hGFddcC8-st-10" value="&lt;font style=&quot;font-size: 20px&quot; color=&quot;#000000&quot; face=&quot;Times New Roman&quot;&gt;&lt;b&gt;Without Mask&lt;/b&gt;&lt;/font&gt;" style="text;html=1;align=center;verticalAlign=middle;resizable=0;points=[];autosize=1;strokeColor=none;fillColor=none;fontColor=#FF0000;" vertex="1" parent="PX8XIWMq1hGFddcC8-st-16">
          <mxGeometry x="36" y="232" width="140" height="20" as="geometry" />
        </mxCell>
        <mxCell id="PX8XIWMq1hGFddcC8-st-12" value="" style="shape=image;verticalLabelPosition=bottom;labelBackgroundColor=#ffffff;verticalAlign=top;imageAspect=0;image=data:image/jpeg,/9j/4AAQSkZJRgABAQAAAQABAAD/2wBDAAgGBgcGBQgHBwcJCQgKDBQNDAsLDBkSEw8UHRofHh0aHBwgJC4nICIsIxwcKDcpLDAxNDQ0Hyc5PTgyPC4zNDL/2wBDAQkJCQwLDBgNDRgyIRwhMjIyMjIyMjIyMjIyMjIyMjIyMjIyMjIyMjIyMjIyMjIyMjIyMjIyMjIyMjIyMjIyMjL/wAARCAGsAUADASIAAhEBAxEB/8QAHwAAAQUBAQEBAQEAAAAAAAAAAAECAwQFBgcICQoL/8QAtRAAAgEDAwIEAwUFBAQAAAF9AQIDAAQRBRIhMUEGE1FhByJxFDKBkaEII0KxwRVS0fAkM2JyggkKFhcYGRolJicoKSo0NTY3ODk6Q0RFRkdISUpTVFVWV1hZWmNkZWZnaGlqc3R1dnd4eXqDhIWGh4iJipKTlJWWl5iZmqKjpKWmp6ipqrKztLW2t7i5usLDxMXGx8jJytLT1NXW19jZ2uHi4+Tl5ufo6erx8vP09fb3+Pn6/8QAHwEAAwEBAQEBAQEBAQAAAAAAAAECAwQFBgcICQoL/8QAtREAAgECBAQDBAcFBAQAAQJ3AAECAxEEBSExBhJBUQdhcRMiMoEIFEKRobHBCSMzUvAVYnLRChYkNOEl8RcYGRomJygpKjU2Nzg5OkNERUZHSElKU1RVVldYWVpjZGVmZ2hpanN0dXZ3eHl6goOEhYaHiImKkpOUlZaXmJmaoqOkpaanqKmqsrO0tba3uLm6wsPExcbHyMnK0tPU1dbX2Nna4uPk5ebn6Onq8vP09fb3+Pn6/9oADAMBAAIRAxEAPwD3+k70tJ3oA8juV/4mN1/12f8A9CNFF3LHHqc0bMA8k7hF7k5NDEKpYnCjnNB61wooU71DDkEZFBwv3iB9TQK6CihSHAKsGB7ims4V1Tks3YdveizC6HUUj5WNmCliB90daeFzHuB/DuKdguhtFLj8vWlC5HB/A0gG0U7bg44/OlCcHLCgBlFSsLcQDa8pnzyCoC4+uf6Ux3RimyPbx8xLbsn+lAr3G0Up60hOMe9AwopM89eKXk0AFFGQFHuaDuA6H8qACimqTjkHPagv0BHA7etADqKZnOKcGAwynketADqTI9aauARk980TSGWR5OMsc8DH6CgB2R60ZHrUBzj3pO3J5oAnyPWjcvqKgHT6+tNY4FAFnev96kMiKMkiqxPQEY57U12JONoHtigC15yHoT+VIZ4x3P5VADxnoe1BwGOCPr2oAsCZCCecCkM6BsYOfpUW0lsHg46gVHIPmOMgHkDFAiyZ0CBvm3ZwVx0HrTTcqCRtbg9aYB5UKu6BhMOGz93B9PX6+tQjr0AFA0e2UhpaQ0HlHh+q/aIdSlujIQGvTuUDou4jr2A61o3ODaykHgoaW4tFF5dmU+eGmkAZwOFLHKjjkZp6qqx7AvyYwB6VfNex6XLYZAc2kHAACDkd/eq4eOS4keSNpJQ2EQA8CpreJobfyyQwU/Ke+PSplJz7Ur2bDlukVrWN4HkjYfITvUjpz1H4Uy0mMt3MSPlYZU/Q9KuN25PSq8USIzbFwW60c173Dlta3QsdeB6flRkqcg4NGduR7daToDk1JQ8gOeDtPoaaVYZ+Un6dqTP4/hR8w6HA/WjqOwMjDGRgMMjPGaY5KphTz647045J5PHQZ7UEdcUAAHGO9HykZH3geuaUDcByc9hikGOmKAFwWOBz6AU084qZredIVnMTLGSFD5GCcdKhfeGAVRnryOTQCEzgkU7HAOf/AK1Zt/qtrppK3UyI3UgNkj8KzR4z0Z5gu6RnRgTIiHaV7/jVKLexDqQTs2dGATJnIbHAUdQaGyeCScHnJrm4/HWh+Z9nElwWJJ3eQdvTrnqKgm+IPh5ZBHDPdSDG7zBCSo9c/SlqL2sO51hHPqKYR6A9ayofFOiPHCZb0IZThSEJUntz2zUep+LNE0/ej3qSS52CKI5ck8dKWpfNC17mlJcLHbiaQgIWCg57npipVwUU9RjPWuOn8WaRf3lhaRXflxRNumeZCoD9MfhySfpXUpf2TWMl5HdQm1Qf6wNx7fnQTGSezLOGXBwMEnHNIewpVO6ASgqVIGSpz15pCcLk8Y9TTLGnoM0qI8sgjjG53OFA5J9qjYs/TgHv3qQZXBDYZTwQeaAFmRldvlYKvBLDH+eaiHNSSu8h3O7OT1LHP86jP3eaAQjL2zx60Hb+nc0MeCaQfMPrQMTkDoMdqUcYLAH6ilQbjt4x6ZpD0/GgQ8NiRWOcA5zTCkJiDKrMHGQ5fr9KNxBB5yO9JIUiA+bYo/h6UmLclhtproFIIXkMbhyQSQg6ZP8AjUJPO5e57f496ls9Rn0+6W4tZUU9JEblZF/usPSmSSLI7sI1QEkhE6L7D2oTDW57TSGlpKDyzzHUZVkvnieNY1SRwhXnnOcmqp+VRuYYpblgL66z/wA9n/8AQjTGYPwwz7jg0JJaHqADlf6UzuCOlSKARgA/nTWyY8KQrepGaBi7ehPA96aDzgcc04nLfypAcn3oEKQeRSE5680o5b5s49qaRzQMXOOnAIwaG4AoPpRnFABxxSE4GT078UjE4OMD3NVb2+h063M88nyhS2FXPA6k+g9zTtdickldl+Hb5o3gkYPT6UCNz0GTXAx/EW7kvCLDS7aWFflMk0rJn2GOtUNZ8ZX1/MYU/dHbzFETtT8+p96r2cjF4iHTU7rW9Rh0eBXleNWY4Ch9zdOu0dB7muI1bxhcXCGHzzFGQRuRdrH9a5sRzXDqSGYg8Oz53fnVW5tHChkiC8kYTk/j3rRQUVc5p1Zz8kOlQ3jjepMZbdvyW3j3J6H2qy1lHM6mC4aG5jXAyeSKw981vMSryA5+6cjP1FbdjqiXCLHNw6sNrgcjtzQql3qZJInZRKskUxMRcbHmA+aGQ8YP+yR0PSqkdqmmI928pi3PsFuOQB/hV5bpSGjlYqAu0SLkkc9Pce3aq1xbyXcE8QVfNjG8oDkNj+JfWqU7ajcexQN1areyGYSNEEG0INu5v73/ANc0SXUMrJstkKt3dizADtzWcSS3PWpoE8zCr98MOT0A9ay9pImxr+ZHE887QJtyE6Dj/ZA9+9TJeSTy+XMqxxAZz2AHGcHv29qpXVznZDFw0XyFkHzOTySP8ahMSwqwlYY/i2tk/QnvV8xRr6fdSaXqNvc29xI5hUhot/ysp7EnrXd6RrsuqylJVjjRQCRG3J5wBz2ry4Xu1QoCqo6d6sQ6qVyqyGM4zuUcmk+VmkKjge1tGVOAuCKaeF5FedaV4kubWNXFx58XHMh7f0rtNM12x1KAMs8aSAD5GbBOfT1rNxaOyFWE/I0GNM7fhT25II6HoRTDgAdetSa7CsMjim80ucH/AOvSdO/FACnA7dKACc5703OaVcbTz9KBCMeevHpS7zwc/higjrnrTVwW+YHp2oAcJAc5HzY7ADFRjBOR09KkDMgZVONy4bnqOuKjU/N0BGe9AHttJ3paSg8o8muedQuf+uz/APoRowM+vvRK2b66YZA89xyMdGNVI75XTeUYRbsb8cdcVSTZ6kpJblscN3qPzE83ygylwMlc8geuPSllmjhYByckcADNUXnjXUYZkYAMuyTIwcdqcYtkymkaHTpRjk0DDDcOfpR2qBh0BpGznjr3FGOMGkxnrnHtQMXORx3pwQ7GckBVOMnufQVGATjaBn0qK6uVt7SRiyhk+c7jt8te7H2pDHXji1tHupZY4YYgWdnXPTsB3PtXm2ta1Lq6s17iO2V98cH3WbHQOM8nvjtR4p1yTVL0SrNKltASIhwOO7ZPQk965G6uFbq6kj+4S36mtY+6vM4q1TmdlsX5L9jJtDCJBnavpn39aqG6tkZshpn9S2BVDep4xx2AoLEHg5HvS52Y3LMl/LM5K/KT2TjFWVvZRFH58sTDacfN8w59u/1rKBOMDijnGOwqeZhc1Dci4AQkSA9A4yfwPWohF5M6OU3Rk9OjCqKttbPQe1aImN7D5T8zpyjZwWH+NPmHuRRXDRXhQs21SVGfTPep7a8YKy55j5H0zyKpXR3Okh4JADfUUxA0b7sdDyKXMCumPvV23TnIIzxii3fbG/IGCCaW82l9y/j71GjYhlXHXBpCtZjkuGXdt4LdSOtRsSyZZuAcBaZSgZPtQIkjSSRdqDCk/manWCFMmVlY54G7ge+ai8ySQLFGMeuKVQke0khj2AHWncaRdhZVDo88RVxgpt3f/qrStiqKgjljQrjBVMD8qwjcMm4BUAbtjigXEkuEUbP9pSePerUw0PQ4PFd/bxIsqxS44Hy4NbFt4hikjBniaMdSw5ArzG1vm3bS4dcfxHnPr7Vp6LLfQXSI8xu4M4K7sMv+Ip2T2No1pJ7nqSPHLGJEYMrDgjvQSQo7VDaSpJbjHI6ZxgVLnt2zxWR3La4fw55NOB5weBUZIC9MCnD0FACOyqSMH8s0m/d93P41IXEanzH2gd801yGzlcke9ArgQO5xjp7n0phOM/pil4KEk89qaQPxoGe4UhpaSg8k8jvVZ7y+AzkySAc+5qikkcmnLaqC0uzYY8cg1o3GTqF0cYAmfn/gRpMDrjBPUiqUrI9OUbjUUpFGGHzqoBPWq0oEuoIjKpRVLEHnI96tk84NJgAk/wBKFKzCUbqwkcKxArGm0dSM0pz1I4oJHWhQWYKoyTwBU76jGkhQWPYZxio/MMNqJJASQMnHqe1StIi/LkDHGc9fesbVtYgtLWaZi7RKNuFTOHz74FC1dhSaSLsGoCS2kuh5YgjYgkk/LjqWrz3W/EEmrTyTSSA2VvkLEi7Umf0Y9/p0GKiv9auNTK2MTeRatIw8teC7Y+ZmPUgDt0zXMaje/aJBFEAltDxGi9Mev1PWtGlDfc4p1efbYgubiW6k3zyb+SQM/Kvso7VC2SPUetNAJPHP1oGRx29KzMg2nGcUlO2ktjBH4VKlpLL/AKv5j6AUrpDUW9kQfjTk3E5UfWta00SeYhjGduODnr+FdPp3g9yqh4xuPXHJxUSqxRvDCzkcTFBJlTsyM1MLSUNujDhlPdeR9K9LXw7FCigjDBeSVzVK58P7psBXA2/KN2M1n7ZM6PqlkcLJHHcFgT5bZ5XGRn1pRauIjkAY64PUV2Y8NbypztyMNntVdvDUsMn7l8jsCN35VSqpi+ry3OMeDK8N04B7VAEZGZWBxXW3Wh3hmf8A0Zhjq8pA2/RR1NV4tJJxlEJYkc9venz2IdBtnM+S390+1MwemDXfxaAWiK7NyDvjkVQuvDpyzqu0A8nvS9shPCvockG24GOMdu9KCI1zwWI/KtK50whiVUkr2rNmhaJsZyOx9a0UkzGdOUCNjk+lLllXbkgEcj1o2lQCfwpdrMNwHU+nSqMtRnB4NWIonRleKV0PUEGmiONQxd2J7bf8asi4ihCmEMDnkZ4H+NNWHbudNoniW8sSiXIaaAnAdRyK7+0u472FZomDKw6g15VbXltBOSW2I3DDb930OK7PQrhIxgS5U9NnK1cknqjoozafLc6aTGw0iN8wAHbj2pSC65/WmDPB6fSszsROMKfmG4egokZNm0dPU9aaMnn1qKXnBzzQK2oB9pyBkd8nrTiSzc/pUDZ2sDwRUkbAqM9R+tHUo9zpO9LSd6DyDya441C6/wCuz8/8CNID27EUXBxqN3k8ec/H/AjSZ6YoZ6w48556U0c80p7UZ456UiRpGB7005I+UDPuacxOTVa7uPsdrJNwAoJJP+etG4bIg1W7h06wNw9z5T/dXCgn8q8u1O9mv83ZeSaQyeVAHPAJ746VJqepXetTyzPI8UIz5St29T9fSsq4ud17HDGWCQoSqD+EY5/HFddOCpq73PPrVXUemxZU+U1zcJjZFCIlfvyeT9Se9Ye396Rt6Hoa3riMGwmOArJsAHYgDOP1FZdlA0zh+pPrWFSV5BGPQiS3kYZOAOuAMk/hSMkqssa58xjgLXTW+lyNGvlJh24BxV6y8OBXMkzFmbnr2rJySN1Rb0Rz9hpMs2F3FieW9Pfmu003QIBEiYBPoBzmtnTdAZAq7VUcbUA/nXWWulBIvLVcLncQD1NclSpd2O6nRUUYVlo8SqHKKz9BxxWkunCEA4GM9AcE1qraRxuVYEtjkA81KkCIpDHb/vd/xrLlbNTGW3IckKDnqx7elIliZWaR4D83cjlhW9FGZTh0GwcA1MYYwMcZ/kafLYZy7wLGyxmMMfp0p62KuzMw5zgAVurb/f3FWOcjI6VG0H2aRnOCD0AHU+lHKx6GA2np9n3MvHcY5z6VTt9DVbWKMr8yrzx1rq3VGPzJknoBUCRjyxtGMGjVC6mO2mtGAVAYAYIxzVF7SPLB9oB611cS5B8xAo+tJLp8E7AlEY46+lKzGrdThrjRo2ZlCcjoB/OufvPDEW9wUPlgfMQPWvTv7OAclkwG+77VDLpKbX3gqCKackTKCZ4xdeGpIJCEUhR3J7Vj3lpJASH4A717Xc6QgBGAVI4bGfwridX0MP5xC4YYx6e9bwqPqctSgraHnjdeQPwp8bsD8ig/UZrWu9NNvGWCZxjj/Pas8bFf5spxkEV0pnDKnysswhrhwz8n3HT/AOtXQaNPJaTbUAO4AOnVR6Ff8KwYf9ZkHOeGx+hras48ok/BZWyy+nr+daxYrW1PQbK4W6s1lQME6fMMHj2qcEjINYunamY7tNOmRQrxiWCUn7/X5ceoxW0SNuTwfeplFp2O6nNSjcM4B71E7Z/CnucKcenWoCcYyD+FSy0PJBX37mnDAce/pUYOc4/KhPlbv19aQz3ek70tJ3pnkHk9yP8ATbn/AK7P3/2jULzojAMct/dAyfypuq3H2WW7kx8xmdVz0yWPP4U62hSKJRncxHzOTksfWnbS7PUv0GfalLYZJIx2LLgVMOnI5ocKysrKGU8YNCrtAUdAMCloLUCMkE9a5TxhfIlv5JMj84CqOB9a6vGRivPfH0snnrCspyB68AH/AD0qqavIivJqmco86QeXKzFFQbih5+bHGfwqlbNEs6kL+9k3F2c9AR29KiESMcKCWVeFz95u2foOasW0LGcnaC5G0kn7ox0rabbZ58UaHItlyDmSQl8/7XQU3QoA0YYqpJJXDHB64zUkwkjiQKnmIpyxA5LEf0re8KaFcahfNcONlvIMhGXPPQkema5Zu1zrpR5paGxpkE8xk8u3M2V2pg/IAO+fc/pXTWehyrFmZkDZBbCkZ9hntW/pWlwWdsiIgUsMdOoH9K01tkLhm7fkK5HNyZ6MYqG5kQWWw+WifL0L1qw2s20AOuPXbzVraAuduR9OBUbShRlWzzwBTUEDlfYX7MkW7ywFBPYZ4+tRypCq8ryeAxGSal80kEA845ANQYmMp+c4HAGKrlFFMglZ4QMBmU9F9KTdkgcfUnrUjrsOWBOe1Na328lMe4pcpYqkKSdhz069aaI5TycHParSxAAfN+JpY7fywx556CjlFdGdLHMQPk47Z7Gq5eSEjehAbhgOa2WiwoL/ADHNRNbCRiCp2kHOT1pcjEmZTTpFHuyQoHRuo/Cm/wBoQvHmI7m4OQe1TyWxtZM7Rtxgv6D0qZrBBhvLVVI5wRSUW9ymTxlX44+lMNsGAV0BB6AGljTcfl65weKRXkz8ynjuD0pqIrleezVhhFxs5A9faubv9NDzKu3IORXYAeaMhWLDqA1Vby1lYrIsJcjkqCAcd6OWwmzyzU9LUhmIHI2A49K5C80//R0dY9p5AI7c8Cvb77w+l6nm2yDfvDMGXj3/ABritc8Nz2UDQdXUE8jqOzfStIya3MalNSWh5siC1uoDn5XOBnv7VuD900m1lCl1Ktjoe4P4ViagXUAryOmcf5xVuwuJm0yZwUMgjJAbpXRF6nBLR2Ni9kee0jkchxZyGQxBsF/Qqex713dvPHdWUM8TiWORMhs5yRwfxzXnmmM9zsjcbXmVkdAeQ2D39Kv+CLq5hubuymWTyDhlDHhWxgt+JFdE05QUuwUKnLPl7nZyfcIFQ4yuB1qduKiyM+1c7PQQmCFJbrjtTxn0496AMnaNoJ6E0iN82RyB7Uhs93pO9LSd6Z454/qtq11cTKrbcXLl/cZNTLgL7CpLnIuLtsfKJ3599xqBGDZwO3pQ22rHqW6j89KD0zQcjqDgVAt3byOY0njdx1VWBIpA7E3Gc1514zVTqrhUwSuQQev09K9HAweeMdia8/8AFkJTWHeQEq5z8zZJ46Adq0o/EZYmL9mcfBbYkV2QDHQZ5apo4As+SBtGXcnsuM4qZkYuC4AY8YHQZHb6CplhEseMYX7pA7it5PQ4oot6bZ/arqNpM7R9xOn41614aggj8tAQSB8zL6ema8v0iQvcpEqkZHOBnI6flXrOgWbeXuYMB13Hgn2rgq2e530bpaHSQwJ5u8gDH3QPT1pTEjlhu4HXFW02i3UbOSOoPQ1Fs+cnaMUlFbIpTbZDKpCfIN3oDUKw4yQMKOo9auSYRctUZkBPJxnt61aikVGTtoVY4wW+XJ+p6VN5QHzDjPc1Mm0qeMcUFV8oqx4IpaDc9Suy7gAv5imgMsgHVcd6lSPykxngdKCATkdaWhVyMoD8oOKcMjgUjgDGaWD5iScY7VLsHS4EZxnOaRlwDheKH7AHmnFTJ3+XsaQELRKEwQCCOc80sUICAYDLnjNTFNijJ5xxSoQvFVoHNoN2A/Kp2nPpStbE9CPbinAsOuCRyKmLqQrE4PpVWRDkysLUIwMaf7zdDTt0fKt1U8VYkkwnAzkUxFUvuA5PFUoonmdtSextABKZCCH6Aj1pt/otnewiO4RWl27UkK85+tW4uAQ/3T0x2NXcAge3SqcVaxxzqSUr3PmX4geGZdFundYwY927j0rmdOWKezaJV3B0bCZ9e3517d8QVS4gKSIoKEjJHWvEltTpurW6ozKoLqg7duKcFYuq+bUf4eP+isGdw42sPVQM8n3/AMK1NM1N7fULSaVGPmqVkJ5xUFvGtuJgeN8oDeyknj8zTVcebFHnaoYYB6V1wX7uxzXtNM7kTbirYxn070pO7PGB71FbtvhUlcDHIIqUjJ6da4mesthcb1bpgA+3FIuc43Nz3pAC+QakVNvXjjpSGe70nelpO9UeOeOa1eiwj1O72GTyZJH2D+Lk8V5zpvi/WtbvXtbi4VEkztjhQKFx2Dda9f07StP1m81WDULfz0EzDaXZeCzehqzbfDjwfaSLJD4ftQ6nILM7YP4tW9OKauy8VjqdGr7OV9Nzx7xDqj6bZfZd0iSTJgSM3vz1rnNOvooruFzKiksctv5HAxjFfTR8M6FLEEk0bT5FByN8Ctg/jVu10zTrFQLXT7OEDkCO3Rf5CtEopWOSeYUpS5kn/XzPn27ub6a6IhsdQu5G5HkQu2PQ5Ao1SO7iht31LT7yzuJhtR7qPYX+mfSvotppWXAYgeleSfGWBi+j3BD4Alj3MflUkDOO+7H6UNK2wqWOVaoqcVozzmQCSRdh4UkD0Ynv+lWXby4QI8mQrhVHUVShKNGiRsqeWuT6L6/pVu3jebUIuCfnIP0A4P0zWE5HoRjqdX4Y003l8iIowCCwHbFeuWFt9njVeOPSue8IaMNPtFMi/vJcyEkfkK6w4G1QOtcHNzzO63KrE0Sdi/TlgB0pzMsacZBPrSNPHFH+9YKgBLdyK5TWPGNvA0kVq9vvQc71YkfXGAPzrqirKyOfVvU6RpFH3iB9TVc3MTy+44BIxXmo8eXE8p+0QxqwPVZCMe4B4xj3q5/wldqUV7i5CEvgZHJ78DoaThI1U4Hfm4jLkBgSO/QU03MWQjMjA+hryq+8dfZmI87zEHPlM/t1U4/TtQnjuOVzJaM6hxgwvg7W9j3zUSiwU4nqouoskAg4PQdqFdXUtnGe1cTpev2t6oukuNiB9skY/h9QfTgis/UfHXkWW+PdtluDHEuQWKlsZAHYAZrJtm9lbQ9DlwYT3GOKbZvm2Tbz1Brmk1+J4QEJZmGMZ6DHf8K2NHnee32YwO7buc56VCm76ja0LbSAOVbJIGas2c6SQNk8qSD9aztTcwwsyZyBwKyNJ1Tz9Plw+HDkc9z3pSlZ3Q5RUonSXU5TGQOe/tUaXStIFz83pXPalr6WzlmO1YeJD6d81y0vjpI9RQTGVjKBhE6DJ+UEjuRz7AVcbsiTjFWZ6c1wFXLMMfpSLdRFx83I6Y5FedN48sY4gtw21weWDrtX2/D1oXxhplyoeCfzJCeiyDk+lbxgzF1Yno32gbyT1B4x3q1byKZFP4kVwNn4ttptqG5Ejr0VuGX296008Z2Ma72lXavDNuGKpRaG5xaO/wBnmoAOMVPChWPDHOaxNB1+x1WFZLK6juEPGY2BwR1Fb4Oe1W2cFS60PMfiLGIwxZGbOe3UV4zeyK00cgRvlYKxI6MpBH4kZH4V9GeMtMOqaO5jUGaIMw9RxXzq4eOXUowM+Xg/Mercce3/ANehO2hq/eimT3HkvOCfmi3koM475xWfCnmzmJWCiVigboVPb8a0jCpRNoUKrevY9/pVaBEuPKLRMHV92wHByuefyrsvocttTuLPIto/lwQoGKmYKQOKitifJTcTnaOalJw2Rwa4na560dhADk07jB70ncY6elHPNIo92pO9LSd6Z5B574Zb/icauP8Apqf/AEJq6rtXJeGT/wAT7Vh/00Y/+PmuuHArpp/Aebmy/wBrl6L8kOXikY55NGaYTk1Vjz3KysKSR0rzH4yMi2WjeYwVnlmA+XJ4Uf5Nem4PWvLfjSMxeHgSATLcBeOc7F6UM6svv7dHlFtKpEmAFU/IAB0Gcn866PwtZG81lEJyCDtOfu4/+tXJ26MJ1RlJKg8nr0yP5V3nw9Edx4gSPBJYgZH0yfzNcVR+6fTQiuY9ttbZYreJeCyKBk+lRXV5HbLJNI2NqngDJq38v3xnGOgqhd2+6KR/J3c55BP546j2rjhpqarV6nmXifxPfXVytu+sDToGG37OHVSynpkckn8ea5ae9v3JSOW5ntU4LzR7A3ueOfrXpdzosl/cAIbIKxyyLbKDj6sM596kHhCKPADPE/QLKmVA9sHpXUq6SFKjdnkdxLbtMGnnCEcCNlyM+3t7VhajqbI3+jF3QjkMuQRnlgO1e66n4fsrW1LzLYlGTafPwo5+oz+Vee3ugaQGPlWjKFByyuRGw+h4H0qViUzOWGvszzeO98wmJwsiZO0kYIJ7itPSZYYiqSLhgRuXdg8HqO2R6VsNpFjIWOLRAD0MoJ/SkSwjwHihhfbkghd3H50Sq32CnQkupe0y8SyaaZSzRySA7SpwTxhvbPenXUsEAiLAukSFY+4LFiSSO5JOKgs1gSVlntQquOQpJU/hXT6dpFnM6Opbcq/JnkD1rF1EtzoVF2sZVpc6peXIihg8pC3zOG645x/jXqnh2B9P0+NZCd7c/NyTz94n1NZ2haRZwFIwGJQ7jxknPU11NzG21RAw3HgkrkYx2rBy52axXLo+pmarcl4ZVVjvVcnHpXn1prAsZjbuXHmt6Eg89j6ivSXs28ogKpLdcjr+NczfaLDPFJG6bGDbs9ADnqKd0tymuxxOqaml5C0KjEs9yzS7jgIARuY+2Mce1YOqrCu91uFt9xypA5Zemc9hj8TXX3mj2NswkMjl1cueeCSMc+tczqL2Qk2wWrSyDtu4/Emt4VEtjCdJyOXaWG3OElViDuI/gJ9gahOpqzozyMXznBJA9unStma3jdiZoreDvtLYH61KtlpUybZnijJ6GPDGto17HLPDt6JooRalHcDCnAGScyYKfj3FaVkzSW26VhPHwNpGfpg9CK1NP8JaPcyFrdo5gRggEKfrhq0oPA00UubW3mxnON4wR2GB9a1+sRYlhZoxYtSXTb5JbQtEYmyV3ELnucDrxxXt3g/xjLqBhiuBmKUfI5/hPZeetcraeF4ViWWW1eKVRgKbYde5PNW7Tw7d2d6bm3lOMqQrE4bp0A6cd6bqxkP6uz1V0V2ZGwdynH0r56+IGnJoOvXkcYAjuI965HQ8H9ea94s5NscKkkkZPzHJAJ4Ge9eafGix8uCxvkj3kllbA64x/SknqZpct4nm6xrJpwhAADLge+OMU2zt2nu7c4I3vnKjg4Henyl1kiVGBUBkG4ckkcfyq7o8BN35p+8ibMemTmuhu0TKCvNI6IYVQvOAO9OzxkVGT/k0u4dzjjtXOz0kSAj1o6DJ4yM0meecH6UbsgpnCn9KGM93pO9LSd6DyTzbw2ceJdTH+05/8frse1cd4cGPFGo+5k/9Drsa6KXwnn5yv9qfovyAUYOaWnAgCtGzzFG4mwYry/4vH/iYeEx63NwOf9xa9OeRViZ24VepJ4zXG+MvDz+IPsM8z7JNOd5YVQfeLADDZ+lZSku562XYecqinFaHhWowSRai8YITbIFUdMAV2XwpBl8YZbOPLJJ7LxxWJ4sSO3vQ3lMsshEciydsdT7j3rZ+FLH/AIS0hWABgbofTp+lc9XWB7STU7M9xDAyEDgYxTxzjCtj1zio4QvYe/NWTtC7scVw3si5aOxFKqRp5pdk29eR0rh9R8W/bZr1bC/itNPsjtu9Rn+6jf3Ix/E3r2Fa3iV5Luze2jaQK4KkR8Nj69q8qn8Ea94gEFhdzLaaPa5EFpCPnY+rH1z1JzUxXO9dEbKnKMOZasgvvHUmq6sdO8HWJuZSpD6hqPzyZ/vL2QfhXMW3hvVdVt31PWL2UBXfzWmdmGF6pgc7z2XoRXoNr8I4LVwLa6u7d0wTLDMQXx7YxnNWZPhjBI0xubu6aSX5pGeZm5z1IGMmuqLhD4TF0aj+J3PMbDS9E8RiQWk0emfZ1fLzPtDKADubOeevA9hVrwz4dsL7w7d3t5qH2ZkmK2syy7S4H+z1x7V3/wDwrzQ7WVj9ijYBgUBXpgep680+TT7OzJ8u3jDHoT2qpV49Ahg5dTzaPWJNNuDDdBr+23f6xFIkA/HjNd94ekWSKGW2lWe3nBaNgOR7EdiO4q7bW8VwxjkgV43GGBHUVu6bpFnYW6x2kCxJn7qcDmuKo01od8YuOjNPTfl2yY+Y8E10ShmQFMDHUVjWceyLJBJPYVs2+VTODSoQuyK2xCyMBhsAkc4Nc9rLMsbEdQOTXTMSQTwSDWDq8W8OvqK0rU7LQVN33PPbgtcF1ZgMZO5zhR7n2riJtZTUb02elusUO757ucY3HuQOw9K9Om0uKeJ7a5TfDICGHqO4qkmlaZYAQ29iioORkZBpQa6jmm9Ezz3xb4ZttLh0qaO7MsN1JtluzIHxn6enPFQ6ppHhm0vG0e1upZ9QEhT7QM+S3A27TnuSST0AHGa9Ng0TSLtistjHtP3lU4Bqk/w00W8+ZIxHJklTkjaB0HHeuuNaPU4amEk9TzVtH8Q6Drq6fazpNOWVSYTvjySQASfoa6jRvHEmn3Mmna6ZdNvEYrvCFoiR/fXOQPcV0a/D7ULcfbLXU54ncFpAGLDPTODVC4+Fk+sbZLm/u5HZcI0x+4fpj9KJeznoONKrDWJ3Gg69btfRw3KQrcSR70kjbcsq+qN3HqOortI7OC4hG373XLH/AAr58PhXxH4Wki065MlxprSiSGe3UkwSdA2DyPcdCK9o8M3l09hEl3/rAMFlPDVyu9OVjptKcObZnR2qNb4TcxUdMDpXO/FSPzPBnnohdo5V2+2e/tXWxKHj46nuKwPiFEJPAV+MHCIGOOuK7KTucE3eR4Q7CQrGD8xCyKSepHY+9a2jI4BZgMkdQfesRh+8VCvzMmUGOfc/yrsNC02XUHW1s8M/3mJ+6p966p/CkTQTc79hwI7frRnJPPFdJe+BdXs7R7hXhuAoy0ceQ2PbPWuYJ3AY/lWLOyLUthyseOOO2aXPP1FJt4IzQBz36VJR77SUtJTPKPMtGlSDxRds7hQzyjJ/3jXX/a7fr5q/gDXCxL/xPbjkjM0nT6mtksSPvH867cJSU4Xv1O6tldPFz9rKTXQ3H1O1TqzH6KarNrKEnZBIw9SQKyu3SlBA4rsWHigjkOGW938yr401KSXwssKL5QlnCSEt1WtTRphc6PAskheVUGCTywFYXim1e68KT7B88LiQY9utP8JSyX8FuF3DYgbr2r5vFXji5pHsRwtKngFGGnK2Zfj/AMLLqemfaoFRbiNsKX4AB4OT6VzHwotHXxXqLMGAtg0Qz65xz6V7RdQq8Eo2ByVIII6k15v8PLIWfinxPFliYJhCc9SQSc/XmqjO8GjzXLnmpHp0Ayv171NJyuKjT5RTwc81EY33M3vcoy2w5yM+1Qm1CtkAZq/J74JqIkl8AYGKHBG0ZuxCBICckEduKq3Ack7R+JrTKYXtmq8see2DUOBcJq9znrm3mfoeT1IFZzaSDIGZM/7x6V1kkIAAPWhLNeuAf6VKhY2dVWMC30vBHyYTPIrR+y7AoPI7e1av2dUQYABA4qLywG55pSi9iFUu7hBByM8VdC7VwBmkiTGDipjjGM/jXRRVkc853ZXRNzkVT1K2HysB0/lV9Ad45pbqPenUcdRWtSPNBhGdpI5KaxyTgc57VQn07eCpXHcGutEStlR94c8io3tFdcYAPt2rmUGjockcemnbVygK9ivarkUUiY2tkjtW21iDgY98Un2VV7cn86XKaKZBbSzKFB/DiriNM7ZbkZz0pYotuOKtoMYxiqUSZyQ1LYXORKoOexqRNNSFyyoOfQVOuAcgcetTxuSSNpx61qoKW5yynJbFyyTaB6Cs/wAUW4uPDWpw8AfZ2P6Vq2+MUl3Es0EsTjKyoUI+tbRjynBKXv3PlW0+0XkkATcrwnYu0Z+XrmvcPCNhbaVaqxwqInmSP+Ga43wR4b261q9zIo8uC6eCME9Cp7V6bb28EkcticBpFwWA+6e1Feq+ZRR20IqFJ33f5HFa14o1Sx8Q2uoi9kWBpAjQA/IEJ6Y9ffrUHiq1is/EVwsI2xSqsygdBuHP65rO8Uoz2rIcB4pgp9QQa2/FRZZtLu1JDyWewnGRwSMfka5qEnztPsehjaMIU6coK26/yOcJ4/8Ar0Kcke9RtxgDpigYCghjnHQiuo4j6CpKWk70zyjymEf8T2f/AK7SfzNbG2sdDjW5z/03f+ZrWc44r0cv+B+p9Bh9YjT7UKpJpBk1Mq4HvXe3Y6W7CXapJpF4jfdEZJ+mKk8FaedP8M2ZmGLmVNxz1C5O39MGpLVQySLIMq2AQfSoX1F7b5ZJd5LE7sY4zwPwFfOY+KVds55884ujHa9/wNnU72y0jTpLy/m2RrgnAyQPoK5PwxaC28TeKJQQyz3izK4OdysgII/Ok1+7F1p7fxFhtGfWmeAoJrfSnScks2CmeyZIWuGnNttMyeF9nTU29TuOwqYINlRRLujznpUwJ2kMe/FbxdjhkyFo89OtHlkDPUj1qVRk8mlzk4FXdBzFZge4/TrSGPcvzcVcVM9ajIyTt/Gmo3GplTaMD600MMnAx9anZCPmJ5H8qibAII/L1pWRqncHBI4wfrTVUlhjGe9PJAAAHWozMkcm3IBPT3rKWrshq9tC2MAYPWmGRQuCeD296jMquvBx70uxnGd2foK3op7kcvcaSCQRnJ7VJlJDjjf9entUM/yYwCW6fLzinpG21TjLfxGtmrja0uMMLI5ZR/vUxmCtgITn0q55qoV3D2qpcTRoxPAJOPr6Vi0khwbk9hhGcbhTHTJ60qurdT16cVIMYGeuaIpM1vYjSMMMqeKnWIgLxTkQjoM5qxGmeOh7VSikZTmNRAB/SpdnPB49qekeRz1zTwrIaeiMJTuTwHgH86dOSFBB702HAbB70tz9we1U3oc/2jiNAjRNa8QxqpUx6gzYboS67h/Or6K0E+7+Pdk/WvPvE89zb/EGNoJ2REd3wMhS5wDkdzjofrXXR6k7xq8rDd3IHWuKpP8AeNHsUqEuRPozC+IlqYr1Jol/c3jLKrDoHBAcfyNTeLX/AOJboa/7EuR7ZGDWp4iiGq+FhtIL2V1HceuUzhh+tYXjWUJfWFmCcQWgY/8AAiTWtNXnzeQ6s70IU3vFv8tP0MANxg8mlyckg7T6ioUIGeevtUzI4RH2kK+drEdQOtbnOfQVJS0hpnknk/8AzG5f+vhv/QjWwQTWMTjWpv8Ar5b/ANCNbQavQy/SMvU+gw3wsVVweaUg54pN9KDnpXeblmzwXOfUCuY8SyS2twSUcc8Ed66WBWaGZF4cqdp9DVVzZeJLG4tJpAmpWvyyp0YHs2PQ9a+fzHWqyKdX2dTmexhadE2o248puccgnoa3bXy7DXodOXcWNhG6nsQCQfxzWTp2k6h4eWSW5nikhzkKoO7HvU1rPZaprdjqFrdndaCVJUJ+6rgfKR25GQa5FFIjFSc9YvQ7eA7ogPzp4BLE4pkGMkHv3qdhx7+lTc8yTsyM59KegqIFhLg8jrTkfa21jlqakJpk46e9MbhaVWOCccio3fBFaKRKWpVuGx24zzzVeaXYig5+Y/lUtzGHOQ3SqcwOArZOfXHHvRKWh104ppEwlGwUn2WRlBY5PqP5VWtkBnQYwGYkk+tbBlt4l/eXUUYHXcQAPxqKUkrtjqS5HoNgtgFGQPXkVMynHHFPXYFDM4ZD0YHiklcIOMEdsVaqpHK5uTKxRVkJPVuM1JE6pJj3qq8uSfYdKWJt0g/Cmq1jVw01NO4s1nhyvDVzusW8tjGs7KPKB+Ynnaema3pdUt7GIG5mSJem+Rgoz9TUd3eWGo6bcRCZHjeNskHIxjrVTlGaaZjSqVIPa6OctLkS5U9f5Voxnc2WPNcto87C1jOTyOtdDBcgqMjFY05NHpVI32NKNsdetTOX8s+WAW/hz0zVNGJJ4+h9aswyEHaRz2rdTOOcepciBbBYYfbkgdKfgZ6YNMRiMHH1qbhgTmqcrnK9xU6jIxTLxsR4NPHQVWuySMdzUuQoK8jy7xhYFtVN2oyXYlSPXjIqiupbY1XByODuNbdxdSXIv/OURpBcSBAwwT0G78a4d5mvtVEMR3JnB281jUhaTkfQ4WXNTSfQ9N0BvtNrOGHyNA4OR7VyvjRT/wAJTcDcfkhhXaew2f8A166/To20vQC7xnzJ2WBB7sf8K5PxmQfF+oAL0EYJ/wCACtqSajqefWd6za2/4YwreN7iWOKJSZJXVFXPUk4H86luo3hupbeRlZoGMRZehKnHHtUKlo2DqxDKQVI4KntSEtnPLZ6knrVk2dz6IpDS0h/rVHknkThm1qVExuNywAJxzuNdOmjal3WBffzCf6VyzMV15yP+fs/+h16gOlcWPzCvg3GNJrXyPWlWnSSUepzv9g3jdbiFP+Alv8Kevh+5C/8AIQVT/swf4mugpcV5n9t46X2/wRk8VVfX8EY0GlNZo8j3TSkDpsCispdKtJNYi1KUOk0GQuxyocHs3qK6uRS8ZX1rJuLYN2P416GDxEsRByqu8jSlWcr8z3GyeVcxskqggnp1rJk0ewsUmu7S3SCaRlEjxrguAc4rXWJI48k9KwfE2pfZdKmeJvmQAgepB6VrUagtWbQg5vlidRCSQreozirikuBx9az7OVZreKRcbSoIq9H94jPvxWZxVBQMJubhh1HpVVyzQs8ZCs33Sw/pVt2O0lcEjp71HIAy4YYJHftSJiyGNiCoDE+vNSOBnPGe1VzEqMrL95chcmnTOAgO7n2p3NLXehFPKq5xyc4I96p4LyHIPXqabPC4uYnZxyxxk9OOcDvVmOPGHzn8O1Pc6Y2itBJUIiwowwHGK5TxJpFv4gtDa3khRW5aMnAJ9a65nUEgHJ9KpXAhlhbciuR1XHem4XKpVOV3Z5ja/DvX9Gm83w/4ku7XvsViVP1XODXomha3fSJ/Z+u2yW96vCTxcQ3H0z91v9n8qkilRYsoSuOinqKp3t3cJnEUVyqkErIMYPt71MubqE4U57JL0/qxrySc9OtOa6NpbPOsfmyBT5cYOPMbsM9h71zk3iaIhC1lcLk8jKnH45pItda5mHyhEHSMHJx6+9TCLuEoLlszh9W8C614j1VtS8R6qr5JZYAx8uAf3EBPAHT3rp7RRa6QNNsXbyiAhkHZe6rWpd28d1K3nnheiE8D6irNvaqABjDf3cV0ezbd5Fe0go8kEkUrG0+zoVAwK1IAOMHHOcVIbYgD5frTlTbwcn+RrNx5WNSuXI5BjGPbNW42z/F0NZCpIrAq4KDkA1oxyKQoDD2wetO7MakTRQnbz371LGSNwJz3qrC5ZSGGMHH4VZQgkkenWrTOKaHqwIODz3qvMctz25zVjGBzVO8fZBI/91cg01qKG5wEui6xL4hublmhbTpZPMgAP3lPUn3zXTJo2k2Oly3q2tvDNGN8skUYUkDucdad4fmTUNLgimYlwDtY+pNX/IubO5Zo23qONh6GrtfVapnbOpJWi9GvxMHRLu/8RahDcNbPa6ZAT9njkHzSn/no3px0FcPrt4uoeIL+6Ufu2lKr7gcV67bosdjdTKpQ7GOO3SvDoc/Z0JPJHNaKPKrGfMpSdlaxOFBOcUMDuPGaBnPHWng9aBo+gqQ0tJTPLPHZjt1uU+l0f/Q69TU5Arym8O3VblvS4c/+PV6nCd0Ebeqg/pXjZ7p7N+v6HpV9kS0UlFeAmcwVx3xF8VSeD9Dg1OO0S5D3KwSIzFTtIPII78V2VeZfHJN/gBD/AHb6E/zFdmBk1iIq+4m2tURw+NX1KDfDbeUrD+Js1n3E5vXzIzFs/dz0rB0RWS2ViBwBtAFbSZzk/jX07owUtj0VUklodv4Qu3m0SNJn3SQsYm9sHgfliuglyRtGeo6Vx/hOfbNdQBehWUn1zx/SuyjfapJwSD0rnnpJmE9HcsRgbc8Z70rgbSaahDJx0NK5GwA1Bz9SpKqyPhh0pNmVAIHrTm5l5oDHaSRgChM36EEy7UJPbt61WlvoYdgfcGZtqgfxH/Cqeo6hJHceUuW53Fj0UDv6CseS5ub8pPNYOLdVLBBwSD06459PrW8IdWVe2hszX8h8wI0SsDtHf1598ViPq3n6giRuz2zJjzF+6ze47D0NPiRMowVYYwdnl8lsDOAPQDP4960U0l32sgCxbADtUDdzWqcUHLJ+RgNdyz2cgklkhmwCsqpu2jPTPrVy3dnjeNJFbC8Bwcn3z3rZ/suGDBaaJVHG0HGKp3doHQeTghT2OKzm02XTgzMCBIgm1WDZJwv8qgljtba3DhJAcYBH3lz6VpLaTbMGMhc8Z9KsR28OUeUqW6fQUkrM1cJSWhzFo04soXQszHDtJIeif3v9qtiw1B/Kd33cEhIycnGOOB+dbkWnwyLlJYsjOFHAHpxVSbQVimS5eFWcNkuBtJH1FdCkmjlcbPQtW74gRSvl7u+eGH41IrpMnBIwT2rBe3kWSdroRkH7hOT9OOgNRQ3V64kRljLovHXIx0//AF1nOKZqptbnVQqCo24IxwRVqNcAZx9ax9IvfOiXzFKFsdf1FbvlqeorDlsE5E8aZBznmpUJGcDPpTIslf5VMCC3amjkkwY56VheIp/I0HUJCSNkDnjr93tW4zDJ7e9cl48lC+EbtXIXzcR89wT0/HFaQ1Y6ejOL8KeIzb29tBena+wbXJ4b39jXp1jqqXJRtysSBg14XDHkqWHGOg/pVxJ5oVKpLKqk4OHOKFSlTfuPQ7atSFVe8tT1Dxr4pt7TT5NKsZVN9OMSbDnykPU59fQV5jwF4HGOlMHTAGO/HepMnPv1rZbGEIqCsgTr1qX+X1qJeDnkc04HjH9KCj6GpKWkpnlnjN+P+Jhd/wDXZ/8A0I16haHNlB/1zX+VeZ3q51C7/wCuz/8AoRr0qxObC3P/AEyX+Qrxs+fuU/menX2RaozTc0Zr5v2ljmsKTXnHxuGfhzMem27gP/j1ei5rgPjMm/4Zaif7kkLf+Pj/ABrqwE28VD1JlscHosmbZQA+wKACw68Vr+ZtXdgkDAwO+axtBkzYQ5z9wdDWwzlVU7R15+lfYy+I7Vsbnhu4EOuxoxG2dGj68bhyP5V30RY8nucfhXk/2p7Vo7lVAaGRZBg9AD/hmvWIpI5RlSSrKGGO4PIrmrJp3JnsW0IA+7j3ps2CM5+lJGcjB60jH5cHtWTOdKzI0G9c0xoyVwGIPqKlztIK96V1B5zgelJaGl9Tnruwjk1Azva+ZtXYu9vkX/gI6n3NLM6KFV5OT1Y8DP0rRusRxsEz/wAB9a4vVoNTvSwtJkikHXeuR/OjmbdkdNOKep0zT28S+ZgOwA696p3mpzuoIcpGeBXGW9v4pQukl3ak4+UtCeP1p0nh7Xbr/X69OqsOVhhVQPzya19nM6YQgtTqEZH6uPxqrcS+Wfve+Qaxh4Tvggc6xqO7GGG8Y+vTrSN4V1SRfl126UH+8itxR7GSOqLXc1Zr+VIUUzOwbopbpUtvMHALyVzsnhPWDGoXxDMNvIzbr/jRD4W11Wy2vvnr8tuo/nVezmU+VbHVuwT5o3+b2q5bayyDy3kDoO55xXMxeG9VfrrNwCO4Vev5VBJ4Z1uNDt1qTI5BaBT+HvT9jNHPNQludlcS2pQyqERj13HgiqUVlb3c5lik2lU2jb1x6H1FcLqWm+LpWEEWqRRxHkskHUfia3NG/tCwjiiuAkky/edMqGHsKiXPHU5pU1sdraxqQqMihhjoP1xWqgBCgHNZdmxmUOww47jvWxEAMcc96UXc5qug5vkIAHHf2pwwDUbY7804HcAew6VRzvYeefp71598T55E0vT7cjiW4JAHoor0BcN9K8n+JV8JfEFpZK7f6LFvJU8qWP8A9ataT1Kp/EcvED5QbA+tPGRnDHB6imwzeVKkmxX2nJVhww9D7VIWae4dliVN7EhF6L7CtDUXIB+7n1zTlPKhulRk9QB070oJ4HamUSrggnnPal6gj2zUak8gjkdT605mOCVyTjpQB9E0UUlM8s8kulzqF1/12f8A9CNVJfibe2E7WMemQMID5e9pDyB3xir1zxfXR/6bP/6Ea4PUIh/bN4SP+Wp5rKvhaWJsqqvY7cTJqKsdh/ws7VHU+XZ2QOe+84/Wo2+IuvNwI7JfpEx/9mrkQFBGBzUuQBWCyzCL7BzqTOmPjzxA4H7+BQf7sI/qa5rxv4h1nU/CGow3Fy0sOIy6KgwPnHJwKSN8n8aq+Idw8LasqEgNCu4A9QGBrSngcPCSlGCTE27FnQQBp0P+4ODWszFV3AnOMY7CsrQTnTojnJ2Dmtd2CKGIPsB3rV/EeimNZlELbvmPPHrXZeBdUF/ootZJC1zYS+W4PUoeUP64/CuJwWV5GAyTztqv4e1n+wPEy3JG6CVTDOinqnr9R1pShzRZE3se5xk9wKU9QDVS2kVog6PvUgFWB4IPerBOVwOvvXGmZtagy4OAetLjKcjgUoO489BSsfl5xk+lIVyjOFbOQetVzaLsZgv3R0HFXnfgkDmkQN69e3oKSsjZTaRk/Y96hinXtTFjMZx3961lXyiVBJJ5wewpkskCjMrhAODmtY1mjZVvIz+NmGHeoWmRQRnrmi6vYi3AcjJAwKxpbhjcTA7VVDjJ7mtFiZdjeEofaNPfGw5bPGPwqTzY2xWH9r3llV03j7p9asQXIWPeW3NkDjpzS+sNdC+em9jbV1GduBUrHzF2jGM54rMt59+SVwAfvdcitW3YMQdpIPTHSr+ssxk47oaLRXUEjmkeyiI4A3HoRV4ENll5YfLjNK0SyRgEd/Ws5T5tzHn11ILdAjKCCc8cdK01JVQcEn0quihRnHFT7ti9smoWhjUfMxJCSeOMUoJX6d6hZ9ykjrnFGecHoKdyeXSxZyqq5Y445Oe1eDaxqH9r+IdR1FW3JJKRE3+wvA/lXp3jrXG0jw1IsR/0i6P2ePnpkfM34D+deQQgRxhV4AwOa3op2uOmt2WAeOlPB579PWowR0FPAB6jitCyVTilXJBbjaCAT6E1GD+XSpYJBFMrugdR95T3HcUwFLY5IPHc0qFQ2dxI61JPCIdjIxeCQbo3PUj0PoR0qEk4GB9KQ9z6NpKWkqjyzyi6/wCP65/67P8A+hGuH1Q7dXucf38/Su4uv+P65/67P/6Ea4rWfl1mbPXg/pVI7MSrwRSDc5HP0qVjlDxzUc05mk8xvvYAJwO30pXBCDFD3OZCxtg/jUWsnzPDWqjsLYn+VSLUeqbR4f1MHndaSY/KkPoT+HTnTbckclBjHfitqUYj4OAT2rC8MknSrUkD/Vr0+lbkh+T1OcYArNnorYrzvKIG2OFxwMDvXMaLbytfSG5uDPIoYSMD8mSeq+nHFdHMRkMD0JAxWVBAtsJlTGJNxBA7mtI7GU17yfY9X8G3vm+F9PYPuVd9sWH8JRiMH2IxXUpLuUFcV5t8IZlFjrOlkkrBcrMAeg3jnB+q13haW1uhGVzE+SrD+tefVVptFR95a7miD8vtUUkrJEWUjcO1HmDByfp71n3N9Fbq8s8scKrwcsPzyazQlHuT/O5H2jg5+QKOR9TU0BZXYFiQelYb3A1EyeWzKY+pMZy//AeAauWU9wxLyjLnHU5b6EYAX6VTKtoaMkiqHdj8o6461UnAmdJNrFQRgAYqWPBhGM9ecVHLIyFAEyCecHoPWobZUFZ6GZe2oNmQkxjKvktjn8K568tSkqi3VkOc7nH3vrXYylEXL7Qo5yR0NZN3Zm6mikSUIytvlXbu3L/dHp2OaqNzZWe5giwcbQDhUkyikYxg/wAjVqKyjt2CxfJDGOFHUA1oyRK8g3jIPOFHT/61JHbRbHJiYjqBn73tVasOVIksYI0VmV/lfOfrWnD8x2crt649arRxgeXmPbtGQfQ+lWsngoQOec96lXuDRaUANnB60sUcxlyzDygDx3zVdDMz/Oo29Dz+oqwDIRtRyMjI46H/AAqkzGV0SMrqnlh8n1NOBAjC5zTMrHGDMwBPBPYGmZSYNG5ZSrYyDjOKqxBKXCDHSozJheTls8UyWTjntUFsxmuS5z5cSsxPuAaEruxXLaN2eSeKPEB1/XXeJ2awtyYoFbuRwzfiaygQPyqnYlTArc/MScfUmrWeRnknrXZayshEoyGJyMHtUqHn0qEdMdqcpHrzQBYHA7Y+tIW5qMHk5POKUHB6UMaJld/K8sD5C27pnkfyqWKF5WAUDk4zniqynp16+taOnurK0G5UlZ1KFhwevX8aVxxTbsfQVJS0lWeUeUXX/H9c/wDXZ/8A0I1xuuAf2vLkc4XH5V2Nyf8ATrr/AK7P/wChGuN8Qny9XJ7MimqW53Yj4EZzggYqxkMg9RVNpxnmrBZTGCPSho5UyRVDH2qPVYh/ZN8u3rayD/x00QSbsA5HvU14rNYXAxnMDj/x01I+hB4W/wCQHaEjrEpz+Fbc2PKJ7fzrC8JYOg2h9YwK3JDzgg8egqHud8fhKVxgxmPkKQenUDHaqL7EjdFOAqevT3q5dsBC7pjaPvZPSuR1Lxhb25ZLaD7RN0bzPuY/Dk1a2MZtLc7f4UTix8VrDvkKapbyqA3QmMghh9ea9lmiEiFG5FfL/gPxJfT/ABJ8PNcznyVuxGsSDaihxt4H419SMv3h3BxXHil7/MTSkuhixXEuXtrlW3IcK/8Az0HrRdKiMXLxkcK4deoPTn1/Sp72zW5jjkDFJ4smOQdj0rElvfMV1mjkimQBZoeSMH09R7jpXOjsWq0Lwn3RW5JuZJEGD8gXaP8AaxwR24qQSvu8xljTLALHD8x57HOOT71lSSi2so47VmFxjYGlJYsvTBcjB+vWmyv59jE6wsM5DfZgoIb1GcbsepFamfwmrb3VzGZjcOoHLAL0Vf6VdS4Vox94ZG7cy4/SsQwSw2N19jaPz2Xb5s4LKpPU8cfl1NPdpDtLS7njiG0J0L+mfb+tKybKv1Ls12Utg7goSfl39/aqy3MbYKyfOvVR/Efc1VEsklxJJJg4IjZWA+9jk47D9ahnMHVxlmy7CPuB0x6VZSb3LYuNmZCijKndgZ57f4VH5ryCaMMULtgdyCKyZLiRrxLe3z5gZpMg42qeMH6etPW+uhGFaACMuEjA6ls4zTSDnZuLcOkmHlLlP9Yp6Djg1PHdjCSMhKZI3qeBz3FZVrfeTL5d1tEhPKFc/L3walS5zdSLGu+HZuBDcL3zj6U2hORqyTSLgRN5gzg+oHqPWkTUTblXvCYxggNnIIHfiqccjrZSfOFkPChT97ucehpWnWWbBIQKgcFR/Fjjj07EUJGcmaLXyPE0kpTygoOQNyup71K8hjX5h8pHyr7+lc9DJIluY55EMOAZEXPHzc8enOPxFON/uLk/djOE+mOB9aUkioI1Jp/McRjq3Wp5f9F0XUJx0jtJW646IaqWcRK7/wCN+c+ntUnidjD4I11gQCthLg5/2aVPWSCu7QseB6LqdrfWUYgkzJGg3xn7y/4j3rUJ5zXlNldTWd0k0DFXX9fY+1elWN4t9Yw3K7V8wcgdj6V2M56dTmVnuW+euSM9s1IrZ6gg47j+VR+g5/GlUk49aRtclB9f1pQQRzimDIxxigMeeMc+tAyYdgO1SA4IOeR0NQhh2709WBPtSA+lKTvS0lWeWeSXLY1C6/67P/6EauWPgSx8UxNeXN7dwuh8vZDsxjrnlT61nXh/4mF1/wBdn/8AQjXb+Bmzpdx7Tf0FO56OJj+7uYY+DehE5bUdVJPXEyj+S1N/wqDw9tw13qx/7eyP5CvQKKLs865wUfwj8NRsGL6k5HZr16tSfDTw4sMmLe4Y7GHzXLnsfeuzprDII9aLhdnzT4WAi0SJScLHuUE+gJFalzf2WmW32vU7rybdhmMAZkf/AHV71yd7r66Do5iWES3Uk8yxKx4XEh+Yjv8ASuJnubm/unuruVppnOSzHp/9apa1O51lTiu5saz4mvtY3RErb2e7KxRjBPux7msKRAVwBwBUvfmkIzxTOOcpS1ZDpdwbDXLK6BwYLiOTI9mBr7MWUSkuCNrfMMehGa+L7mPaSa+uPD159t8O6ZdA582zhfP/AAAVzYrZHRho7pmw43D6Vj6tp7Xah4X8q5T7kmM8dx9K1dwzUbIN5fHtXFsdsdDztdRW2vTpmoRXEN395gAZFcE8MpzznuO1bmm6xBfuflV2jUrGk0fkAjoScjOcdMGr2u6NY6tbxx3sDP5T74pEO14m/vKe1cTN9v8AD0+68BmG7zGvFj3xsc/xgkCPjHtW0ZKSCUWzuJLSS9QJBIkNoCMIqEn6DPCnn7xz7VHdXV1awSWx2NN5QZQo3BcnABJ9vpWRbeLYpQGS/RtyYYgBgB6ADOP881djv7Z41KKZ5TlkC5Kse+49aNiLMVg7TCVmDtb9Qn8WAc/U5I5qs6wn92zsJSoaRiOenH5f4VcvZZLa3/dlVlyAXGMt7KPqRWJLdQh550wzKpDfNlQPT3HH4mhMvYfFarbzSyNJ5q4AZm6k8HH8qdczyI3mKyna+AoOfmwMc+3OTVS51BWjw52+ZJmPB5YEZ6fr+VVYZFs43hkwY3U7iM9OOn61aJND/XCSdw5fP3zyOOuPrV4Q7hF5MzRyTMiy8dh249PWsmC5lRlETgRlOIX645JbHrWhIwgDeUFLDaxAPQEcj2och2uXjIka22w4QyGLsTxkg+3fmsh5Jnik2BPtLLuhRmIQA8HOOQM46Uy41UssbTOgaM8BeTk9sD+tUGvJbyVzZTqQAIg+PlBHUj35/SmnYnlubF9PCWWRUIlcMHK9SDgE47ZxV3T43AEkpI6YB7HFZ+mab5eGkYtlQu4/ePvW/EAiqABx0yKzlK+htGNjUtyEA65Pas7xtKV8B66qn/lwk6VYjlZVAY7jjk9Pxrn/ABtqAfw3qdtGSRJbOpx9Oma1or3iKseaLPmCFcmul8NXbW96LYsfLnG0A9m7VgW696uwu0MySIcMrBgR6iuw8enJqfMeg5ZTg4z9acr8nJ/Kqa3SXCJOCi+au/BYDn/9dSLIrEHjcOoBHNKx6bLm7IBPTvijI3ZBz79M1ACcfMp/ClD4JDde2KTC5YLYFPQ5B9O9Qq+eMjBqQNwME0rFXPpukpaSqPLPHrz/AJCF3/12f/0I12ngM5sLseko/lXF3n/IQu/+uz/+hGuv8BH9zfL/ALaH9DQepif4P3HZ0UUUHliVFPPFbW8k8zhIo0Lux6BQMk1NXJfEm5e3+H+sCM7ZJoTApz03nb/I0JXdhpOTsj5J17UE1LxBeTQMxtjPIYM/3CxI/nUajaoFVVi8q7kiJzsYrn6VbPpSerLldbiZoHUUpHFKgy1MlJtjLtR5JJ64r6R+HF8LrwForBslLfyv++SRXzZet8mK9v8Ag9fNJ4NjhY8Q3Lx5HbODXNiF+7uduHadTl8j1JWyKVTxgioIyGOanBXp0riOuSsNdAw5/KqN5aRyo6tGHVl2spGQR6VfY7eoyKjkA7d6Q4nF3nhS2ZCthixbJP7tPlPfkHjOawJI9d0yESRqZQ5+9bMv7vsBhh0/GvRnjZXDZPHbPBqjNbxkkjCrnlSvQ+vtVe0a3G4JnEW+pXBEhmnJYrt8uWPaxb/e7n2HAqss8l0AGtNkQTZ/rVAP0IOT9MAV2k1mWQqCu0+oBBH0rKn0S2ncSGGNZh0kjQAjjHFNVUHszLjmuZpHnktQgVSI0dsuO3X3pGt3lUSXCsqx8kA9z6+gA/nV6TRbYqFaMlV6Auevvzz+NRNpdrIvlywrIp/hfLCmqiewezGJqFvbuV86IOfkGCDjAzgDr0qKSe8vJ3jhtnEA6ySnYJCe4XritGKyt4xiKGJcHOFQCrMYAbAHOKOYOQzl02JlIm2uzEMw6BiPatS2sIkYfIOOgAwB36VNBDuO4rhvX2q5GAmQF79c09QsPjTZyQCKsDI5zgY496hz5Yyx/ConnOOvJpoGSTXG0fXnFcf4quSbGZd3ysjDA+lb1zNgMSa4zxJcs6MB93BropGU3oeQQLtXHepx1pXj2M2B3NJXTueQo8r1NS+mF1omn4jO60Z4ZG9Qx3L/AFrOjXDZUkH2OK2rBoj4d1uB8eaYYZY8/wCzIM/oaxUOGyK0Vm1c0rRs0+6/4BZS5uopPkuplOeoc1YXWdSjJBut47iRAaqPglT/ADppGRk8VbgjNSa6m1F4lmQDzLaNv9w4qwvi2EY32E555CutcyRilXGee1TyIv21RdT7jpKWk71kQePXg/4mN1/12f8A9CNdd4C6Xw90/rXKXa51C6/67P8A+hGur8D/ACy3q+oU/wA6D08Q/wB00dpRSZozQeYFeZfHLWU0rwA8G0tNeTpEmO2DuJ/T9a9NzXgXx+1OO7ltLGGVHS3j3OFOcOzAYPvgVUdzSkm5aHhUBxKSeueat7getZ6khjjJye1eh6L8OLidI5NWnki8yITCCAZYIehZugPtShTlN+6S22zjXkUcZxV+DR9XubdpbfTLqSNfvOIzgfjXs+h+ENP0PSri+i0mO4SA72O5ZH4/2mwP6D3rkNU1W78QXC3FwfLix+7t42+SMf1PvWtSlGnpJ6lQhKT3PPE0bUbyVkEJQA4ZnOAP8a9d+GFk2kWF1aNKz7pVkzjjO3HFYlva8hVFdhoMYt5EUccc471x1XzRsddCmoSud3BISvIA4qwHwPrWdA/C/wA6shiAMdK4Gd25bV8jB/KkK7jkHFRA5HWhSwHJqRcojDtjNQtGDxjIPUEVOzfKMimbSATkGky0zOkjx0G0AcDFVZV2nI69M1pyKxbKYqrNbeYpGcE+1QWjJdwo65x71CASCR0+labWQU4Iz6YpotwD2+g7U0DKK25YhuPxqeO3wTnn0q0E29ufekC5YD2rREsVIiCBwfbtUuFjX5sE+lNL4UhV61GTv5J/A1qQNeYsecD61BIQTwDUmAM8VWuGPIGCAKaJZRvZcLz/ADritckyHPfH5V097IW3A9PauR1TLbgeBiuiGxjLU4qaP5m471Vx82K1LhDubjHHrWcy4NapnFUj1NbQ4kuNVt4JSBDK3kyfRwR/PFZBRopmjbqjFT9QcVZtiyygq21sghj2PUfrUurxAXKXaY2XamQ4/hfOGH51pF6DqRvTUiFV3IPWk2gxk55FLEQVpA2xz0I7iurochEfWkHSlcDnBOPekBqOoz7jpKWkrnGeTXI/0+6P/TZ//QjUUmralo4E+nXEcO44lLxhsr269Oe9T3X/AB/XX/XZ/wD0I1wfxTkePwzb7c4a6AYAkAjaeuOtNas9Ko/cbOhu/i3c2EYE+tRzz45jtbdHP+A/Ouc1P46eIDIDYskCBcYnRGZj67QK8mQzyLs3lEP8KjAq3FbJECxHzY6mtlFI851L7I6DX/if4x12P7Pc6tMkL8GKECLcPfbiiGE3Pg1Iwo8xQ7Ef7QbP51gQxASGXAyOma6nRY86UFJwJHcDHbiqWqaN8Grza8ix4T0Gyn0db9490yhmfnGTux+PFej6feXN/bShyEgiRECouC56AE/SuR8Gps8MQEkYcupwORhq7Hwwn/EnVBndc3XBHTC104eNkmZS0M/x7qUtjqtp4dgkeOFtLElwE4DBnPB/KuZjiG0BV7cACtvx6yXPxG1LBH+jwQW+R2wpYj82rNtk3MMn5c8ivLqTc5Ns66StEs2tvsKt+vrW3ZOFuo/TFUFXG30q1bMftKeorOWqNUdfDKAgBq4h3DFZlq5eME/hV4HK4HB9a45LU6IstBiOOOKeJDxkcVVjk7EAfWp1ZTwBj1xWbRQ/5W6A49aQFgScYHajaeWU8+meKGJxn07Uhj9yuMHrUTxp0oBAIyAKC3c4I6cUmNKxAYl/vH8KYIUXjk/Wpi4XimM/Awe9Kw7kDjH3ahYENyCwqd2IyB171XbJP+FaRJdwCk8dqYwyTg9PSpUTnv7D1pkhwML+VWSVpCIwTj8qzbiRtvpmrsxJBwelZN0+ScE++KuKJZm3smR16VzN8pJOevb3rfuAST6nvWPeR8Hit4mcjlp0BZuKzrhME4FblxFhmbHsKy7ldu3PTdmrRhKN9CFE2pjvV8Rm9sHt0jUu2XQ+kijkf8CX9RVSJd7FieKs2kksU4WNtp3BkJ6bh0/Pp+NVT0epuqacbdDMgbIx0HvTnTBPvU91bpb3hEZ/cyfPH7Z6r+ByKgkbiu2PwnkSi4uzIie3Y0gIGeAeOKDyM8UmeT6VIH3JSGlpDXOM8pu/+P65/wCuz/8AoRrifibHv8Ibj/BOhrtrv/j+uf8Ars//AKEa5P4iIG8D3TH+GSM/+PAU4/Ej0qivTl6Hjtupxv6VMzZTnGM9ajjyQAOnelcjHBrpbseXHYReTgetdZpB26VbEA8O2a5OIEHOK6jR3V7ARkkbHOfxNKN7Hdgbe1foamiXXkS6zCDiJNkyqOgLDBwO3NeleEIDJNpcAI+VdzEf3mOcV4rJcPZ+IJXZtsLyiKXngr6/1r3HwxcR2C6jqbOGisLZ5Ae2FXiumhUTpSa6XMsVHlqPzPPNQvP7S8S67fD7suoygYPVUIQf+g1ZgH+cVjaTGy6fFv8Avtl29SWO4/zrahXAryTpirJIvrlsYOTU0WRIGHrUKDK8cAdCKsRZHOBkHikX1OhsZMqMVqDqO/HWsWxOeufr6VsxnHB5AHWsJo0iIXYNzyf5VZibIz3/AJVVdQ3Ib3p9u5GPpzWNjUvLkLkc0objJH6UxSMdefenMcDIxn0qWihrevQ1GRxkD8alY4A5yajZsEjtU2GiIjCkjio9xC8jkHgnvU56+9RHnHJ+ppWC43aSc9DSFCOcdfzqQ5JyefamnPOSeO1UhEe07ueO+RUExCqctlqmbewyCfpVeYNkrn61otCWZ1w6jPT2FZFySSQK0bpwucDntWbIQSu4gMxwMnFaJEFGRNpy3TuPWs66TK5HUdxWy8LMTj7vcmqN1FhSqj61aZLRytzGc4wRWLfZ+0CPptXp9a66SzG3nkgZJJxXMaqo/taUAjAVeQeOlakWuyqi4UVIw4OOp7+lN69O9WVtyISzHHertodUY30Q+5K3FhuRMvGfNz7Hhx+e01iS5Jx0rdsWC3Uak/u2IVwD2Y7SP1rEuEaOV4mOSjFT+BxXVCV4Hm42nyzUu5FSUp6CkHLAHvS2OI+5KQ0tIawGeU3f/H9c/wDXZ/8A0I1y3xCG7wHf+zRn/wAfFdRdf8ftz/12f/0I1zXjsbvA2pj0RT+TCjqepL4H6Hi0Dfu6U1DbOCuO9TdTW8nc8mOw5eP/AK1a+lTiK6ET/dlXbnPftWSvUCpGYhty5BByMdqpaGlKo6c1Psb2q2rXKecq5VkCNk9GHT8xXbaDq4ufgtq9uXc3hnj09icfcYgg/TbuH4VxcVyt9pUzL9/aCy+4OaqW0rWWphtzCKQ7XXPBz0P4VlJuN7ddz1MRTVS047bnWQgABV+70FacGwt0rKtRnA/OtOKN1xtGB3rFkpGhCoACg8YqUDDYHWq0UjLkEYPrV0YfByBStcLWNLT5MnaRz3FdBHjYAelc3Zgq4Oe/OK34mI+9xx1rKUSkWGjBBxxj1qvnZJ83fp71aXDHnr1yKa6cnPQ1k4lJjonDAEDipgWPXGO/FVoyUwByPerkYDKM8H37Vm0WmREew5PpTGFTsvX5cGopEHTBApWKuRnvgj2qMnAz39aUqVxj8zRsb8e1JxC5GpJOQKkIJ47VIkPzDLYNSeVtxkcDqc0JAU3C5ONzZ7VTusop54xxWlIF5HI54FZl6nO3OR9KuKE9DFnbc+0DnPWof7OiuJYp5I1Z4mJRm/gOMZHvWpFbjcc9+/tUkm1FA4/CtkmRuZssCgYAxgcVSngB7DHpWqy7hznGetN+ygYyB+HQVSSQ7HE+I5zp2lPd4jyHAVXHBPt71wMDmRN55LEmtr4i6q114g/suI/6NYgAgDrIR8x/pWFYNujx6Vty2SOOFXmxHKuxp28QYhmFPnbzGESd6aH2rgDrTlURxtKxwcVo0rWPUitLC2qkXO1e0sY6/wC0Ky9QdX1C5dejSsevqa1rR1gjE8pA5Mnv8oOP1IrBY5+p61dL4Webj2vdQw+nek70uRSZoZ5x9y0maWkNZDPJbhgb+7H/AE2f/wBCNYHjXnwVqwP/ADw/9mFbd0uNSu+T/rn/APQjWP4xQN4M1TJP+p/qKD1aitH5Hz4kxSrKXg7ij7HH6t+dH2SP1b86dzyrEyXiE8/zqR7sAcenrVYWif3m/SlNqn95v0rZTVhNGho2pm01WHBHluwR89CDx/Wrl8Qkm0kkjIyD3Bx/SsIWyhgQzZHTmt+9hBnBLN83J/EZqOZM9PAyvTcXsv1NjQddUultdsBJ0RycBvb6129q8coKhucZryRrdefmbg+tdn4fu55LCF3lZm3FMnrjNS1c0aXNZHaC2BwcfjUyW7AjjioLR3AxuJHTmtCIbi+SeDx7VnYqxLbJswdwK55JrTV32KUYL83ORkEelVYIw20Ek5JJqxGNrcHAx0pMOUtRyDOcEfQ1bQ7x069QRWdGuSH75q3D/rCMnGKztcHGxN5eWG0HPrVqIHaMncPcUyL5hzVmOMbScn6ZrOULCTGMBnH61DKAQcfN+NWcZHNMaJG6j8qmxZUVc4GCD6VMkXJGQQPUVIqDipE55puInIZ5RBHH40vljuamVOuSTnHWk2gk+1TyhzXKUyjnafpxxWdcRkknFasi54ycelULgbWULwD1q1oVYy5FKkAcZ7LyaaY2wMr+tX2QDoT0pjRqgXH8Q5zVoLWKbRHAI5OenSq+p3kWn2E95MypDBE0jZPBIBwPzxWkyAED2riPigWXwjKiuwVpo1bB6jJ4/QVpFamNSTSbR4fPez3N1LcyuXmlcu7HuSeauaXdhZGRjjcOM1WNon95vzp8dqiyKQzdfatWzzqMuSopHSwSJJySOOtR3V0JXMafdU4yD1NRrEFtwVZgemQaWG3XjluPek5J6H0fLHREGqXyRQrEBgyYH0QdPzP8qymu09c470SxefKZJHcsw55qP7In95v0rSMklY+brz9pUchxu1qN7vjApfskfq350fZI/VvzqZO7IP/Z;" vertex="1" parent="PX8XIWMq1hGFddcC8-st-16">
          <mxGeometry x="186" width="255" height="256" as="geometry" />
        </mxCell>
        <mxCell id="PX8XIWMq1hGFddcC8-st-17" value="" style="group" vertex="1" connectable="0" parent="1">
          <mxGeometry x="1370" y="40" width="446" height="260" as="geometry" />
        </mxCell>
        <mxCell id="PX8XIWMq1hGFddcC8-st-3" value="" style="shape=image;verticalLabelPosition=bottom;labelBackgroundColor=#ffffff;verticalAlign=top;aspect=fixed;imageAspect=0;image=data:image/jpeg,/9j/4AAQSkZJRgABAQAAAQABAAD/2wBDAAgGBgcGBQgHBwcJCQgKDBQNDAsLDBkSEw8UHRofHh0aHBwgJC4nICIsIxwcKDcpLDAxNDQ0Hyc5PTgyPC4zNDL/2wBDAQkJCQwLDBgNDRgyIRwhMjIyMjIyMjIyMjIyMjIyMjIyMjIyMjIyMjIyMjIyMjIyMjIyMjIyMjIyMjIyMjIyMjL/wAARCAEAAQADASIAAhEBAxEB/8QAHwAAAQUBAQEBAQEAAAAAAAAAAAECAwQFBgcICQoL/8QAtRAAAgEDAwIEAwUFBAQAAAF9AQIDAAQRBRIhMUEGE1FhByJxFDKBkaEII0KxwRVS0fAkM2JyggkKFhcYGRolJicoKSo0NTY3ODk6Q0RFRkdISUpTVFVWV1hZWmNkZWZnaGlqc3R1dnd4eXqDhIWGh4iJipKTlJWWl5iZmqKjpKWmp6ipqrKztLW2t7i5usLDxMXGx8jJytLT1NXW19jZ2uHi4+Tl5ufo6erx8vP09fb3+Pn6/8QAHwEAAwEBAQEBAQEBAQAAAAAAAAECAwQFBgcICQoL/8QAtREAAgECBAQDBAcFBAQAAQJ3AAECAxEEBSExBhJBUQdhcRMiMoEIFEKRobHBCSMzUvAVYnLRChYkNOEl8RcYGRomJygpKjU2Nzg5OkNERUZHSElKU1RVVldYWVpjZGVmZ2hpanN0dXZ3eHl6goOEhYaHiImKkpOUlZaXmJmaoqOkpaanqKmqsrO0tba3uLm6wsPExcbHyMnK0tPU1dbX2Nna4uPk5ebn6Onq8vP09fb3+Pn6/9oADAMBAAIRAxEAPwCruoJ4qFWqTtWQ7jGJqu5NTkE1Gy0CKz1XbrVt1quyc00IhpBgmpCtRjG7FMCaMAVbi5NVY1xyatwjuOlIC3GKsxLkVBDyauwgHikMkRBnk1JGo3/hTUU4zg1NGrEfKh/KpsAhWmlFNTmNgcMCD7im7VHU07DIfLApPKGatBARUiwgjpTQmVYIl8wcV0tkAqnFYyRYYfL+latsxAOeK6ISMmbccmAKuwyfLWTG4wOatxyYHWuhTA0VkqVZazRMaXzz60rgaom460hnI7isw3JA61C14T3/AFpXQrmhLcnnkVVluDtPIqi9wx71A8rkYzSchbk01yxyPas2XLtz61I5YnrSAZxWM5m0Ilc2+49DU8dp7H8qsxxk46VbRMelc8mdcInkYPNTqeKgA5qwi1RyC4zUbipwKRlzSsFyoy1A681dZahZDmmkFymRjrUYUDqOTV7ZjoM00RKdoP3icZp2BkKggAEZJqdI2XDMdoHOPWo7qe1sGxdSZ9PlP9KwdS1Y3EjDTG3Ko54x2/2h9adgOsFzHbwvPNhI1AOev8qz5viBplrIYY7dZWXjdyvP/fNcLBJeyXT/AGuTIJ4TA/mK0ZGs/LEU8flZA+fJb9BT5QNaX4htMu+LTyoBxxPj/wBlpW+IcmNkdiwYelwR/wCy1jwzWGpApIcbenDf571Uls44JTLPwp49f5UrAdFF8SJUZfOsHYZwWa5J/wDZa27f4jaRJGqTwLE+efvN/wCyV5s1owUy9Yj0PvVcglvkXOOvNOwz2rT/ABPo2oyCGK5Csf8Apm/+HtW/FbtKqvE2YyOG6ZHrivnbyghLp8kh5B61esNYvNNcPHceU4Oc7A2eMZ6Ucome/YIkCsNv61YjBVSc7uetedaN8U5gRFqkXmxluTuC8Y4+6nrXoGl6npuuOf7Kn82RR80e1hxxk5YD1FNEMvxkp1OT6VMspU4JIPpmo2Uxt5Zbp1XHSjAAwnTtVpkljzj7/nR531/Oq4VqUq1HMBM0uR3/ADqMNmmgHvTtuKLk2F60006g4xSkVFELdaTFObrSdqwkzrponjOFqUSgCquflqN5MDrWR1I85SMk81ZRKEUVMBiug86RHsNBSptpIphGKdiUyAoc8A/WmFM8ArmrDgAbmYhfY01kLJ+4w2e5IzmiwyttI6Yrmdc1ie3dre1XcMgCQAk8j1BroNRvILO3BLgEsB0z61yAJhceeARnq3Jp2Ayp49Vu5N8slw6twMsxxU0Ec+mqh2GTzD85YE4A/wD11qpqkK3LxDZ5ZwB8h79afd+XPBL5fO1D7dqCitqjWR0tbm3JFwiglVI5Jx6c+tZBnW58oyFgdgBGcUwzAwSRZy4wCPxqgGdJCXJBB+UZ7UwNBd8S7kwnOOOKge6lIy7s/s5JFRXFy20AGhyjRj1zSQGnDMbhdkmxIlG4beMmniOBgWVovm9xWXI7rGiqeNwz9KlSQA8dqYXLM1oSFWPczH+7zioEt5Q5Qxh+edwJI9quWd6YC7sEOcbdwJqZbyJVeXCb2bd9096LiMyVRH/Fz7GtPR/Eeo6NOz2tzKjspBAkYDHHoR6VnTDKF+rDpVeFGYEy5XtkGgLHuPhv4hWGstHaX223vGBzIdqoTnAGSxPcV2ChQCUcSoekinch/wB018zQyNAVkc+W6nKsvXPavRPBHj6S1CWGozxtEZFVTKruQGY5xyfWgho9XGeMYNOOQMkj8KjjnhuB5ts+6NvmBwRwelSBeMkkn0o5SRFGeT+FOwTQPmP04p/SmFyMqaQ5AqSo3pMuO5ExqMt705zUBJrCR201oSl8L1qvLJx1pzH5arSngVkbHLohzU4jOM01c5qwvOM112PNkRhT0zik2DPJzUxVdxOaQhMHn9aBWMLVorg3SSoPMtFTEkeQMnJ79fSub1OaztJlWzTyrp1345PzE89ePWu8kmWCB5P4l6D1rzfW9UMuvNc+U4aEsg44PJ/xoKSKl/HAVWab5pfugc9PwqnLdy3K/ONq+mc1TJZn80YLfdwPSr5EkqIQvG7PSk3YtRK/kM67lG0fnUkJaJXUdSK6LT7MXFhgkhsH+Zo/sN92F3HP+fSs3M0VO5zUMLtcYxneeadPpbmZXCdvX/69d1Y+GpFeORtw4z+n0rZXQiygEsBjr/kVDqF+yPMf7KlIyY/1H+NQSaVKWztwPqP8a9f/ALKQLjcx+h/+tVebQjIuFL9f89qSqjdI8lmttsX+0KgSNtp7V6FdeEbj5mAY/n6f7tU08J3BOCHH5/4VXtCHROK3lcHPK9DUkaySjeo5/nXo1j4PVTueRhwP4v8A7GtgeHAkaqjMeB1P/wBan7QXsWeTF5F6xY/4EKdOhkQZfHPpXdX/AIYuVbIIPy+/r9K5yfSbhnBZSBjHQ/4U1UQnSZh3kqRxbF5OcZqGCTYoLdD1+lXry02ZHzZH+FZkilXI9K1U0ZuDPQvBvjldIvIoLiPdAVCqN3UKp9FJ9K9esNSttUgS7tfuhQ7rzxu6ckV8x25BJWQgF/uY/XNemfDnxFDpV61pOyeXcKq7sjjaGPc1fMZNHrgOTnHXmnY5pI9k0K3ETBo3AYEHPBp69KVyBp4qN8YNSsO9RtjBqWaQKzioG61PKwA/CqMk6g9axkd8NiRzgYqrI+QKjlukBPNVJLpPWsjS5QUc1MDgUxVqUDFdp5iFBzGMgZpqpvfHHHWlA3Ox7Cs3WtSTSNJuZz95tu3/AL6H+NIoyPFWrfZkkgjyPkGSOud31rz2aae5kchl2seSc7qs6pffbWlnLkbzu6epzVSytmlO7G8Z+nalJ2KiEUZAIGOuc1u2umykph1xnoSfWrmmWSF2BTBx6/SuotrYBl44rnlJ3OmEEUbCzMcar8vXnH1rpbLTozAjkAnP9fpSw28bKOxrStozGAo5UGs2zdRSJYLZWKjC4A9KlmhVUIUACpRKFXpVeWXcxqGi0QiML71KoB7Co2YU5ZMVNhk+1SMFQR9Kja2RgdqqPwpPN70C4IBFMdkRJAqsd36VI52gbegFRNIxJNRu7FaTGkhkihzliayruwidRhR19BV5maoGZ/wrLnaDkTOQ1LRwu8jZ/kfSuWvbBVdjxnHb6V6jcRLMXU9x/Sua1bSuWK/3T/L61tCozCdI89kjKNwFJ7E9qms757WXdgFh0PpVu6tijMN3IJHSs1otrNu9a64zucVSFj6D+Huu/wBqaDDauG84EIpI4wEU+v1rqhk/LxnrXz14M8QSaFqtvKG/dozEjHqhHoa+iBOLqITw8gHaf51sjnsMyT8vcVFMdqmpiwBOKqXb4jP+e1JlxKF1MVz9DWFdXbofxNXL+cg/ga5y9uchue9YyOymyWW/YseKhN0zdBWJLM/mnB4zU0c571nY1OqAxUnUUzvTh05zXYecC5GQOfXFcN8QLsPBb24yeXBA9itdyELK2CQQOea8r8RTmS/vAzhzFM4UE5/iqbjMB5SsIQZU4GAau2QYou4jn/CqDFpnB2jjjpWpZRttXIHH+FZz2NILU6ywVQxCkHjsa6izUNGMjsf51zOmIdzHHb/Cuvt4wiKK5md0I6EkUYzwKtrIU4GQKjQBWA9TU/lAnNSaNAZSfWkLDGaSSMgcVGFPekNCs4PSm8+tG3FMJwaRVh+SOppokIPemF89aNwoESgk0NmkRhSs9JoaRXcGoJAcVbPPaopE4rNxKTsVNn7wmo5okcHK54qyyHHFM2+tSroUpI4vX9JVYHljj5yT1PciuOuIyuQRjBxXrl3apcQMjD/Oa4HX9OFuWZV43N29xXXTkclWBzkPDbsjINez/CPWJrq3uobiXLB2YKQAcYTmvF3ZYZAQB05Fd/8AC7VIrXxHcGaRUjNq3Ugc7k967Is4Jqx7Yx+XBBBz3qtcLuQ1dlG+VsgAAZqKRdyfd/SrZmnZnNajbk9B2P8AKuVv7Zhk7e5/nXeXkWD07Gud1KFSh4xye3vWUkddORxUo2uRUe/Herl9DtlfGf8AJrKZ8HvWTOhM9D209Vz70iEP3qbG0Z9K6Wed1IpCI7a4k6bELH8Aa8Y1zcb+7lD8STOw4/2q9c1aRxpl4R/FA/8A6Ca8k1Bv3Ejdwf60io6uxmxy7AM9etbGn7pQvPU/0rAAM0oGDXb+HbDdDESD+X+zWcmbwVmbulW+N2ff+ldNGeQKowRLCScVabYo3SEbRzycVzPc7loi2CfNH1FWw1clqXiT7HKILZk+ocHsPb3rJn8a38XyFwQP90f0o5ROZ6C7gdaiaQEcVwMPjWR+JNn4yAf0q9H4ut9nzJFn184f4UcoKojrWfioGkrn18SW7LwIhz/z1H+FSxaurjhk/wC+xSsUqlzW8zJo3HNVPtG7HI/Ola5IIHH50rFXLwkxTvOUdaxb7Ufs8O7I49SPUVzFz4mmS4IQrx/tD1+lOxLnY9BEqnpQTuFeWP4r1EOP3nGPRf8ACq3/AAk97nmQY+i/4U+S5HtEetNhRzTCu4ZHavJDr96+cyZB9h/hWjpGv3ULZdwRuBwcDv8ASspUx86Z6MVLAgVzviHTt9mzd85/UVt2N2l9bpIrKX2q2FbPUU+eP7TC8UnToPzpx0YVFdHjN/CIp5Nx5BOB+NbvgrTLvUNWlW3bDCBieAeNy+v1pviixFpeSyDOMZ6erGug+FVmJ9ZuXB4Fuw45/iSu6nqjzqujPdZkKNtJ5GM0xuE4FOkYNIy+gzTM4UCtDmZTuULdu1YGoW5ZTgdz/OumlXdWdcQg5z61nI6KR5/fWTtI+F/zmsSWzZSMivRbq1UluP8AOaxLixTI4rFnWkFlchiea1gQ3euasmwTW2s3yEDqRjPpXU3qcVhNS2/YrhWHyiJs/lXjuqujtcrH0WQj/wAer1vUPNbTJkjj8wiJ9zE46ivG7uGWO6u4WzvmkO0Z6YJJpMIxady34d0/7ZdxgrnLMOn+zmvTNO00WkMY2gYGent9K5DwE0Ivo4HwZvNcYI9E9fzr0S5EtuwHlBomG4vuHy+2K55o7INWKjNgZAzXNa3q9zI8ltZgtkgZGTwV9j71vZIHyOXHvxWS6xLGr7FWQnBwOfzqFE1U9DlzY3shYuG3nuc8VC+jXT8u5P4n/CuoklRMZIGetV5Z4Cy5m2D2Umq2Iepys2izKMh8fif8Kg/s65X5d2fxP+FdTefY1iDm9OP+uR9qxprq3ViY5ywH+yRRzE2ZRjguwOGP5mtmxklHDseh7+9U0mL/AC42HrwavwtGrbc8gelDKWh0SXGCMHipGuguCTWfE4CqhOSDnPrTpn2ozFcqQce1Sa89kVtWnNxEUVscnv7iueNgzuWJ79c1pSzq7HDdDVOe7hQFGmKH2BoIupakDaWnUuT+P/1qsJpELH/Vs30UH+lT2uoxMwVLVZ8nucdvcVrzXs9uRt0lRnsJVH9KpE2RmDQIFXJB+nHH6VBLo3lnKMcemf8A61Wm1u8kfaukf+TC/wCFTpqjIhNzYiM46Fw38hSkikkO0ae50q4BLM6OPukk4wD/AI12UVzHPHHKCN20Flz3NcZDqmmTuYzcrHI33R5bHb6jpWtaX9ukTrC/mEADIBFQohKRn+Oooxp80w5by04+r1pfBXylnu3l4+Vxz/2zrO1+zudVtWZAUi2KpOc8hs9Pyqh4J1J9Naby1ZkO7lW28/L/AIVvGVjlnG59BIA0rBgQ4GelPZeBx3qrpWoR6rpkNzGuHfcSepwCR1/CtBUIUbjmtkzF0yrICMcVUnX1FaMwORis66cgdxis5M6KUChLGGJ4qo9mrdquvKMe9N3c1izq5Tz63bGa0Yph5iBiNu4Z57VgpPtFWLe6LzKPUj+da1LpNnn0tZpGnc+JpNP1BrKBVNtIVSUhuNpAznj3NcZ4oto4/M1K2G4q7PheR8zAdfxq7qm4a0R/z0ZQB+Aq6bH7Q0No6jZKDuBHHAzWMah6c6ceTQreHToN5awXF3DAsygK+6cjJ2jOeeOTWpez2tj+/sbmKRFUFURgcZOMZ56Cuf8AD+lRxeKH0+4T/WXErIuOCoBxwR7V0GoaJEJnhYGKInqnynrx2rY4YJpnLaj41GVENuhb++Jc8c8dKrwXeo6pL500UscTDPKcccdcCqHiLw7/AGRPGLfzJI2UZJ55yfb2r13/AIR62a2FqiCMJltwAGfbp71LaN7Hl93aWwfdOA5PYkinWt3ptmmEsUdhz/rzXZap4QjyzB+oOOfb6Vylz4deC5fyyDjBOfp9KV0JpiPr37sldOJA7CQ/4VjXWrw3DvustjZxgyn1+lbRXy4DC0C5IAyqelYc+jyNctKoIBJOG9/wp+6R71yLeJIduzMu7PXnH0rQstbexcxXVkwKqfmdynJOfSr+leGgWaZndmwVwTnjg+lW/HenQW+nR3CR+XI1wqk7QONre3tRoytUZ8Xiy5kKxQae8gBzhHz/AOy0y68S3sbESabLFkc7yR/Na6nw7Hplto1owtbd7gFt5MaliNx/H0rUv20a7tZElsrdZJEZVLRIGBIx/hS0NOVtHmx1K51hlt4Y2D/7A3n16Y9qjCw20u0gPcLww3YOeh4/Ouj8EabDPruqW67BIk22E8dBvz29B2rQ1TwfFFcXE4V/NLliQBySecfLT0IUWzCjvL21gaW3cqynj5AfbuKzh4w1sn5bnd7iJP8A4mtcxSpA0YRuTn5gayYfDs0jEhwgx0Ukf0pXSE4NA+vXUnM7B2PsB/StHT9RlnTGwgHj9T7Voaf4XhaVPNTzPXIB7/SutsfD9hbwgC2T/vgep9qhziXGDZxl9pB1OzYiF1kTG1gpOckZ4/CuRtbO6bVJbKASGUOy/KhJ+XPb8K9raCG3hchVVOMkYG30rh/Ddlu8T6xdqMmO5Yo3oGLiqjJWFKDKV1aXemeHJX8xhINhKGPBySoPWls4zb6UY4Ttcz7jxk42+lb3iiIy6bNEv+sdVPv94VC9iPsIaHmTzMZX0xSb7FRjpqeo+BYVh0OAlssI5Pb+M11G4FBWJo1v/Z2kQQsBvXcGJ64LE1eN6ir9K0jexEkmy054rH1CTC/if51LLqAxgVmTyNKTnOM1LTNIWRWeQ7qsRtmq5i3Hir0NuQDxSUWXKSPJ5SUXpRZzjzV9f/r1FdXKsABVa03faFI5wRx+NdMo3VjzI6O5qXFq82oW1xj5RICfwI/wqHUtW8iYyIDmFmHBI74rTtrlR8spw2RhetZWu6bJGY7lR8jlmIz1zjH8645x5WehTqc0bGvFEZNW0vVUQAC0Xdjrkq2ef+BV08/lywI0ka8oDkjNc7o0sOqeGnskbF0HEa8HgKFJ9uxrYtpGbTzEW/1BELH3XFUrtCskznfFOny3ukxJBGPNE4JPAO3ae/410+k63Dqnh+0uYxhmZiTzkgMw9KqzTgv8w7dK5PTLuXw/rb6TIP8ARGUQQf77kH3Pc9TRZlxasd1czROAzPxzwRmsG/a1aRmVwCR02e1STQOr75DnPQUqMoUZT9ah3LsjAlSIk4wT/u06HThMwJYYPYrXVQQibG1cHHrVo20UK5kPv0NF2LlRjW4gjjIVE3ZzwuOK5Dx7qS3q/ZACpSZXxnP8B/xruNQ1a2sVEpG3Py45PqfT2rz/AE/T5tZ1GXUbiPMcycDI6jA7Eehqk2iXFM6LwraiUwSsBs5JUjIOGrd8Q6KLm0NzahEMcbttVAMkDjnI9Ks6ZCqJHGvG3kexzW7LFiyDyS7sKxHy4xUNs0srHjGh6mmmeJomYmNt0glKkgk7WHOOvJruGvJrlxIVYq43Ll85B5BrK8W6ALu2ae1XMu4sTn1Yep+tZei+JRDCNLu03XMTGJDnGFUAY4GOx71S1RNrHQPasTn7Kh/EUW9uATm1QflVyLUSgwFyM+v/ANanm9DLnvSYmrk8U0UWMwqMelWkvYmwM4/Oso3fQL87E429Kq3tyLaMSXA8oEE+vA+lZtFx0H+Kb77Nod2EJDuV2YODw4qDw1Zva2Es0gw94kcinv3J5/Gs20d9bvRJcriytSQv/TRWBAPGCOgrfFwGRIusUQ2oOm0dB9elWtCJtFHUB590E9Fwc+xNWfBFjJeLMk/zYLMN/wA392rFtbKzG5kH7pWIz6en866DwRaExTSnjll/9Bq46nPOTSOkuNxlkUccf0qhIGUck1qSIWBX+Ick+tVmt93Vf1rrjDQ5o1GZ4yTTmQsMAVc+ygHgVKkIB6UezL9qUobdhgkVpQx9eKcFAHSn5C9KpUyHVZ83wzySk5JrVt12MpziqNvGq54q0ZtowDzTJNNbgQyRkrvBbk4ziuhS1Fx9nkkXzYtudmM8EccVxKyM4f5jwOfau50z7Ynh6aSONWkEcPl7j279/SuWqnc6KD1IbWzNlq6XMcfk267iUI2gkgjOOncVbvVa1ulaI5tZl82RuwZs8enpSahMw8PSPOdl5hMKvTGR/wDX71NoTLrWjNYuQ1wz4UDg4UA9T9DWalY6ZxuUbl/nDbW6Y+WsjULSK9h8o48+M7xcR/eBA4O7rxn9Kvi5xbZmODv7AntVfKSLiHv1xxkU1K6JtbQoQXmqabGkDxtf2zcCVVaWRRnnJPAPPH0q0up2wZcx3UTZ6TAAfzqQ7olABKgdgetLiGePMkaMcdSuaTKRYl8RW9rEpZo9uOsRG7+dUbrxjFs/0a3upXwMb0DL+hqGW2gk+UQxtjsVFVZ7J1jJhhVQPTApFGddz6jr9wI5XijCLnbbFl6Hv19a7WHS7fTrOOG3/hJGXx0JJ7CuTs7e4trlp/LCqU2dRjOc03Vde1KU4tCpXcCMEjjH1pplpHZjUraMBg7Bzx8hGP50ybWyAFMsrJ6bs/1rz61v74MPPAwB6k9/rV576SSE7CC2Djr1qQOzh1CGchG2EHtJj/Gua8VeHbZFfVbWTyHCqSIiF5ZuTwP9r1rn/wDT1l86W4niQZI2S+v41qS6jLe2S2LPvVlUZJO4456n6U72C2hUsrnUonBSdZUyc+a7N2rXTVL8HJtos+mxsfzqS00xIYCjKcls5OM1aktVzmNnLemajmBJFP7ZfygiBIFc93DDHuMd6YtjcXbA3t1LI+fuJISn0wex4qaRXifOMc4NW7UqUZ84PtQrilYmhhW2jXCRRxqAGCDBbsPrT3IRd0a5VuW45HpTRIJyscOJH7girtlaSPqdrFPHsRw3ygjDYXvQyLIfPtg0wWnm7ZbhVmX5sEA4/wADXX+GGt445IYiM5L549hXm/iJ7n+2VaBciFPLUZxwCRW54f1K5LOsGDJySORxx71dN6mNWyR6SRsfkZzxQwUDoKcZEkkO1skcmmSHivQjseZKVmRMRnpTd4prk81AzMK0ir7C5yyZKTfmoFJNSKuauwcx8+yzCMcUyBZJZVJOBnNVVVpWrfsrXbtJzjv+dcqbZuWLa2HlZ38n261uWuvGCNLdm+RVCt7YH0rKkkWED/Z5X/69ZFzcmQSKo5Y8kj3qZQNISsbupapHKrkvuHZcdeai8N3vlagsludr+Y5z6cc9a5tYiXD4O8cAVu+GlJ1WKGX5UYsx7H7prHk1Oh1dD1pbKzec3tvH5ltt8rGSPnznvz0qlJ4X0y4dmbTwM/xea3+NHhSeQCWCEBo8F+mTngflWxFI8cPmFfmweAK3jSTVzmlWdzl7rwlbq5+zXZtx/dEZb+ZrPPhK9eVtt6ZE4wfKUZ/Wu4F4XALRv+ApfPtVO4pcbj14GKp0UJV2cWvha+iHyfM3/AR/WoJfD2r8hrQMvr5qD+tdu32GZxueRfqwFNkhtQRtuFxju4zU+xNFXOKl0a98ja1nhd2f9aPT61z6aHDCxKDZxjuf6167BE0THyZYiMfxN/hVpRdg4/dEfjWbomn1g8SvtNha1Z7a53SEHA8sjt7mqum6Nd3EZSZc5wAcjvn0Ne1sjrIQincOeRUwN3JGFKxqBxyCKn2RSr3PJ08EPs5j3BgDjOP/AGatzT/C8sCRqlvgAf3x6fWu5ks23RtJc2qqM5/eYNQtaafktLeoD/syrR7IHWZyVx4WuZpAQdnGOgP9aB4Puc/PqWz28gH+tdZ5umQ8iWVvoymnf2taIuI47g/VR/jR7In27OTTwPbPIDJd+bz08srn/wAerQh8J2VqAFszJ7+aR/WtddUZm+WIj/eX/wCvU4nadDkAGrVMznVZUWGK2h/dgIFABXr7day9TWbTrSS/uBu5DQjgcE4PT2I61qXe54DFJgKe468Vyms3ryTW9uQpRNyjb14x/hWc4WKpzcjCs9Evte8XwXEDeXE4cs2A2Dhj6j1FeuxyRyZltVEf8J7/AM68u8P+ILHTfE0VhfM8SyF5PMOAANpxkk+or0DWNZh0aNGuMNAzABo8H5ueOoHQVMbJlVIuxpzIjopUbXVtxOetRbjjmnW97aXkQaGZWDA4AYE+lDrg11wqRlocThfcheoSKmcY61CTW6vHY556D0AxUygVXVsVMjVqtdWQnc+erCEMzZrbDeUvFZtsPLzUsk5Oa4t9jvsFzcEtio4ow55qJhubNSxErT5ZLcRZWJEXeQMjgUtneC2vknYfdJGF+mP61Snl4LZ6cdKpO8k3MSl2Bxjp3qOeK3Ltc9e0q7/s7xZJaqSsRst+BxyXA/pXTXqS20zBGUgEcHPpXnGu6Lq3icxXtimy4RhGy5X7gye5HcivUphMQRKevBHFbwkmtDGorGSLuVjgrGAPQU17og42jH0q3LZHG6IdetQeVJnax5Fas54vUhWSNjkp+gqVY4X/AIT+lTJBmpBEV4FTYtsiCnd8rsvHY4pxe4Q5Ez4/3jT/ALMJo8h8EH0qotheAfK+fwFOwXY/z5Wc4ds/U08GWThp5V/3HIqs9vdRJmVcoPcUQyw52s3l8+hNQ0XFst/Z41+9JLJn++c09rO3lXHljPuoqWJLdgNkm9voRTwcNhRzU8przaFCS1iiH+qQ/wDARVZyyfdSPP0rYD8/PQZQO24UcpPOYiwanL/qvsgz/eLVYt7HUlOZpIOv8DN/WtUyOACse0fXNRyyNsyeuDTSJlMyLuR/ORCScZBya5m/hb+1rdTt/eGQiure3WaRWB+bkmq+o+HwEjvxLl4R8q7f72Ae9ZVom2HnqeT65FEdbMjrkopXp7muz+H97Jr2izWmsAXapO0qvN87A7VGMtnjk/nWOvg97m/uNU1ibyIFncD5d2VJ+U/KfU+ldZY39uQY7W0+zwfe2+Zuy3rk89K4akHY9TRozrGK+8P66gSfztPd1iUSuS4yQSccDPBru4brzSGx8h6Z61m3FtDq2nC2WUbxkqNp4PI6/jWbpr3en6kdKnGYIwAjcckkH69zXC6sqUjnnRvsdTIRIc+nX3qswyx+tSDCgj06Uxn6V7OExSqrU86tRsNFPD7ahZsUwyZr1EubY42+U8K80Z+U1MNzY96zYskZJwa3tM0i/vWRUjYq3faeOcZryZVo09z0Y0nLQqtHGuGkK7uoGeauWGmXmqTqkMLhR3ZTjpx0+ldbpvgeIATXr7mBB259D6EV00MNrZxbbeJEIAGQoB4+lefiMyUVZHXDDGLpfgy1gt0lvLdGl6k7nB5FbkdnYWO3y4dgA67j9O5pkly7nBdgMY61XRpryXyUSRlJ+9jOMe9ebSxE61TQ3lS5IXOl00pHE3msqnJ5Jx6U24kjS4O3nkcim74CPKMkefvcEZqu1vMkpdGDkdA2SK+swtJqC5jw61VORdS4cHAJ2n2qdZUHU8n3rK/ta4tn8uezhx6iI/1NTR61aucvbP8AVUGP510S0+EyjM1PKilGePzpot0B/h/OoY9X05xtAdT/AMBH9acZ7WT7sxGfVhUxTe5pzjhFCByV/wC+qqtKIvuH8uaWSBGPy3I/77qnLDsP+uB/4FQ1YLlC8vb19yRu23t8g9PpWeLa5lbfMy/jx/StlbUyN/rkA92qQaUkn3ryMe3m/wD1qhsaZjqwhIwRkenNadpd5UAk/kPSrA0q0hGWljc/7wP9KRobZB8pH4YqWWkWl8sjI6/Wl35HOcVnm5giGS0n4EVGdatYxkrKx9CB/jQKxeZpM8Hik/eHoD78VkT+JwikxQR+wZP/AK9Z8niHUbp9sMaIDxwGH9aVxHTxhIX3SyIAf9rFWY7q3eVE3qUOc/MK5yK2lCeZf3LAMAQN/T86ZLf2FjjyrjzSeoDqSP1qaklbUqF2zC8R20q6zK4dPLJJC55ILHFasKiGP5Bgk9Kz7+7tdSu1clo3ChQxwF4z3q8LqJX253cZ3DkV4uIqxiz2KCdi0itEA+9Qe/PNWVuk2xHcCwb2rCubh3c+WXx6jpVrTQZHUSBuOcke9eZXxXM0dCWhvxzrK7FjnpTy/p0qKK3Ta5Vx+dTGHEeQ4bgZwc4q8NibSOatSuRSEFTzUDyZfr2qZ4ST17VVdGdvkNfUYbERcTyqtF3OF0LwBNdb3uztUZAHHXj3ruLXT7LTk226YIGM5P1qxK/2k7nkCAdqqyScbQPlHQ18lWx06iPbhQS1JnuMA4NVvMzmmbs9aRyETNcPM5PU6OSyuRTSFTtB681NpeqR2UwDpkbiTye4rNkcmUlefpSxxEnc+fxFdNCt7KVzGqnONjqJEhuEE9qNpztI5+vekiv2gm2zfOB/F0/lWDBM9tnHKntV5b1bhQu5V9s5r6vC5hGcUpHiVcE07m2yWWpKW87a4427Sc/jVSbSpohlOY8ccjn9aoABWBZCw7N0q1HdvCMxuAOw4NenzJq8TicOVlcQfN/q8H1zUgLx9eatrfLOdt0oK/7TYpzwwlC8Ei/7qnNTzPqO6I47hD94YokeNveqjxOp5z+VAZgehqtyeYsdACKkiAJBPrTEnIGNv607zCwJxiolGxcWSXE9vEgJTcfTJFZ01+uDshwP97/61RXVwScbc81nyuc5VgD/AHe9ZNmo+W7c9eKpvKTywwOmasNBLKuXVlHqVqu89rbcuUmY9AJMYrKUrFKNxqwm4wsY3OffpV6FrDSow14++cfMI8MOR2yMj0rAn1a6ul2ltwP8IAyP0qjc3lvawmSZkWXBJVpNp4rJ1bGsaVzb1HXJ79SkY8qMH5eh4zx2rmJ71/PMVv8AvZyTx0xjr14rLS4vNcuTbIGW2JO4qm4eo5A9q6rSNJg0tQYx5hkAL4zwQPqfWuHF4uy0O2lhkOs7WUwKbw5dvmxjGBjpxWokBYYTgVMsGzBB3AjPA6e1P80jgDFeDOtKb1PQjTUUGxI1CkdKsQyeUqsvQ8Y9apsw3A5B5qwhT5SVwWOAxPT3rPlTKLZvJIdvGxX/AIeu7/CrS3skWPl3K4yUzjP41n4AbYSDu439jTIGWC5+RTbrk7pJDkN789P/AK9CXK7omSubSTrLbNL5g3hsCLH9ahZmifOPL46HmsyVj53nIjOP+ei/d/wqz53z/P8APx1HFejQxbijlnQuWrrTLu0YeYrEEdgapSyAfKARz3r0Mosn+tUH6jNc7quieYjyQ7RtO7hQOAKMTgVD4TSGJvoc1zycGoZWdoyD+lTyI8UhQ9veqsxYDjmvN9m4s6FUbViOLIJG0HnuKtDa4CsCD7VFCCU3471ZXaIi5xke1GlyXpsRSx4ADEAVFFsRpZDneqFto6Z+lWY0NzGXPABx61j63rVtomlrNMA0kpMeMHrgnqAfSvRw1OTd0TK0o6lm28SrDeNb3qBYGZQHxgqO5yTXQQrBcw/aLJ/NgIypBDY+uOPWvGL7XlvGdwpVXHy/MTjt6Vp+FPFdxp91HauZWtmkQZ844Ayc/Lj3r3MNXlB2Z5Vegnsj1B1O1mYCQDtGMkUqEhcxlkP90nBohlg1DBsZixIy6hSvXnv17091AcJ/GBg/WvTjUUzz5Umh8bMwO4g04Kp61FGretSqvvTvbYhJDkiTPU0smFUgZxim520NIDGfpSky0kUytodxlkkX3BAqlcalaWgKw2ySMOjyID+oNQX02A2Bnn196xpC8jlskKO2a5ps2hG5JdapdT8JLtyOisQP51mXckNuc3U6qccfMB/Os/UfEtpbAxrGN5AIIJB/lXISPfavLnz5SoGMNIT/ADPvXO5pbnTGBuXnigfNBpkRaQ/KHZecH0Knrmm2GiX2syi4vHnBLDIcnae3cH0rW0Twk9t5c1yqKAOpQHnP1rq4bfyUCqo8sfxDj9K8zFYzl0idlOkVtN0mKzQKixpwASgAzgd+K040ii5wCf50ZREyCD+FMyGya8iVSUt2dkY2HSScHawVfTOKgLMT97aPVjih2VlI2j61EGQD533/AFFJI0HRuDKQdwA5ye/096txMHOI9wI6/aOEI/2ff/69VoIv4mO8EcZ7e9TQNG87xeb5r4+WIg/IfUZ4/wD107CZZLYXCHDDqZjhP+An09aZv8wbZAZv94ZiH4/yqFysE4juZd5Y4SBhkfT05p0waBN0hNvEekQ5Djt09KbSEiwkoI8ne+D/AAQcp/8ArprMVfAznHTtUQWTYGVDbQkZ85T+uBzzSxywgbRP5o6+Zgj8KnbYbR//2Q==;" vertex="1" parent="PX8XIWMq1hGFddcC8-st-17">
          <mxGeometry x="190" width="256" height="256" as="geometry" />
        </mxCell>
        <mxCell id="PX8XIWMq1hGFddcC8-st-8" value="" style="shape=image;html=1;verticalAlign=top;verticalLabelPosition=bottom;labelBackgroundColor=#ffffff;imageAspect=0;aspect=fixed;image=https://cdn3.iconfinder.com/data/icons/flat-actions-icons-9/792/Close_Icon-128.png;fontColor=#FF0000;" vertex="1" parent="PX8XIWMq1hGFddcC8-st-17">
          <mxGeometry y="44" width="212" height="212" as="geometry" />
        </mxCell>
        <mxCell id="PX8XIWMq1hGFddcC8-st-11" value="&lt;font style=&quot;font-size: 20px&quot; color=&quot;#000000&quot; face=&quot;Times New Roman&quot;&gt;&lt;b&gt;Incorrect Mask&lt;/b&gt;&lt;/font&gt;" style="text;html=1;align=center;verticalAlign=middle;resizable=0;points=[];autosize=1;strokeColor=none;fillColor=none;fontColor=#FF0000;" vertex="1" parent="PX8XIWMq1hGFddcC8-st-17">
          <mxGeometry x="31" y="240" width="150" height="20" as="geometry" />
        </mxCell>
        <mxCell id="PX8XIWMq1hGFddcC8-st-18" value="" style="group" vertex="1" connectable="0" parent="1">
          <mxGeometry x="240" y="40" width="441" height="256" as="geometry" />
        </mxCell>
        <mxCell id="PX8XIWMq1hGFddcC8-st-1" value="" style="shape=image;verticalLabelPosition=bottom;labelBackgroundColor=#ffffff;verticalAlign=top;aspect=fixed;imageAspect=0;image=data:image/jpeg,/9j/4AAQSkZJRgABAQAAAQABAAD/2wBDAAgGBgcGBQgHBwcJCQgKDBQNDAsLDBkSEw8UHRofHh0aHBwgJC4nICIsIxwcKDcpLDAxNDQ0Hyc5PTgyPC4zNDL/2wBDAQkJCQwLDBgNDRgyIRwhMjIyMjIyMjIyMjIyMjIyMjIyMjIyMjIyMjIyMjIyMjIyMjIyMjIyMjIyMjIyMjIyMjL/wAARCAEAAQADASIAAhEBAxEB/8QAHwAAAQUBAQEBAQEAAAAAAAAAAAECAwQFBgcICQoL/8QAtRAAAgEDAwIEAwUFBAQAAAF9AQIDAAQRBRIhMUEGE1FhByJxFDKBkaEII0KxwRVS0fAkM2JyggkKFhcYGRolJicoKSo0NTY3ODk6Q0RFRkdISUpTVFVWV1hZWmNkZWZnaGlqc3R1dnd4eXqDhIWGh4iJipKTlJWWl5iZmqKjpKWmp6ipqrKztLW2t7i5usLDxMXGx8jJytLT1NXW19jZ2uHi4+Tl5ufo6erx8vP09fb3+Pn6/8QAHwEAAwEBAQEBAQEBAQAAAAAAAAECAwQFBgcICQoL/8QAtREAAgECBAQDBAcFBAQAAQJ3AAECAxEEBSExBhJBUQdhcRMiMoEIFEKRobHBCSMzUvAVYnLRChYkNOEl8RcYGRomJygpKjU2Nzg5OkNERUZHSElKU1RVVldYWVpjZGVmZ2hpanN0dXZ3eHl6goOEhYaHiImKkpOUlZaXmJmaoqOkpaanqKmqsrO0tba3uLm6wsPExcbHyMnK0tPU1dbX2Nna4uPk5ebn6Onq8vP09fb3+Pn6/9oADAMBAAIRAxEAPwD3uiiiqGFKKKKQhaKKKACiiigYUlLSUAFFFISFXJPFAC0ZwKz59c0u2LiXULVWQElPNBbAGTx1ry3xp8VR5RtNIZowR88p4Y+w9B7/AE7UDseo6hr2l6UpN7ewwnGdrP8AMfovU/gK4q/+Mvh+2n8q2gvLvHVkQIM+mGIOfwrwHVPEF1eymS4laVmOWZjyTjGfY4GM+nHpWTLeO77ixYjgk9fx9aAPcLr47PvP2XSIQnbzbgk/iAv9azH+OWsFspZ2IOCCDuwD6jByPx/OvGpZ3D7889c5ppnEinIw2MgikK57jZfHeeKSMalpKsh6vbyc/gD/AI111l8ZfC1yF8y4nhYjkPEePy/p/Lmvl+O4f7rHPpT/ADSCWU455FFxn2rZapZ6hEJLa4jlQ9GRgR9OO/tVzNfH/hzxlq/hy4EljcDy/wCKGQbkPI7dhwOmOn4V9BeC/iRpfiiNYi/2S/wM28jfeP8Aseo4/DvTuI77NGaYrZ4NLTGOpKSigBaKKKBBRRSUALRRRQAtFFLQIKWk70tIAooooAKKKSgYUhNLVLU9Rg0vT57y4fZHCu5j6f40AU9f1+y8P2JubuQ56JEnLufYV4d4n8d6x4gujDYBbGEHIjhb943X7z9emeBgfWsfxr41u/Empvs3Lbrny4wc8e+OtYD3DabbbNytPNkswP3QCRj8T378Vldyfkb8qgtdzSvLn+xtP+zQOGllUeZIBg9FOBjtkfz9K5ee+M5yTz70+9u/PZgT16ZrKZsNkfjVmTlcleTPXn3qIFs9/rSAb3x27VpW1l8wJ4pXsK1zPKPnBXr7U+O1kdsbTzXVQWUTR4aPPGck4/lV+DToFfauxsckA8H8eefpU85aps5KHSZ2AdFOCe44rRXw7cToTGhDgZPFdzplqVf5IgUYfMGXKt+GMV00VlFtX9yiMcHI64rOVaxrHD3PE00m5EhjaJlcHBBHepYVubCZJV3xuvIcHBBHIINeyTaVbyks8C59emarS+HLK5tjFJGCCOuBx0ojWTB4do1fAXxBmuLOCK+ka4O8I7Ff3icE5OPvjAJzwwxzur1qGZJ4lkjYMjAEMDkEV81zaXJ4bvBcwHdAflYH7wHHUdCPrx+Wa9Y8C6+ZrBYZJVZhwfnz34OOq54Gf73Xk4O8ZJmMo2O/opFIZQRS1ZAUUUUAFFFFMAooopAOopM0maAH5ozTM0m6gCXNGRUe+jdSAkzSU3dmlzQAE4Ge1eH/ABo8WyC4TQbaTCRgPOQTy3UL7gDB7gk9itez393HY2M93M22OGMu3HoK+Q9f1KXVtcu7uUjfI7O2M4DE5OM/U1nN9DWmvtFKElt0h6hSRn/dP+NVbu5aXGT0JP65/rVxQYrKUc52+Wfqef6YrJdzgA046ImbuwlfIDevvUWSx96M8Y7UBeRimZl22tWYhs8d/UV02nwFIwzR/iw61jaXtVhkY/rXW2juflWIIAOTis5s6KcR1tYvKATt9yw4/Kt6z0lBksDIc4Az+ntj1pNLsJryYEKViBxk9/8AH/PpXcWGlLGo+X865pSZ1xgjJtNKmkwXJQccIMfT/wDXW5a6asa4IOPQ1qxWmMZFWVgx2rM0WhktYK/aoW05RwBxW75NNMA9KFoDOXvtCW6t3QgHI6GuZ0d7jwxry28zYtpSRiRyqZOMj0GcL6dOo616WYsdqzdY0aDVbN4ZFw/VG7g9q3pzaZjUgmjtbQt9lj3Hnbzx3qxXMeDL+a50YWl1n7TYt5Eh9cD5T+Ix+Oa6euxanA1Z2CiiiqEFFJRQIWikpaAGUZpKbmkMcTSZpCaSgB+c0U2lFADgaXd0ptByB157UAcZ8UtT+weCLkAkGd1jyD6fN/7Lj8a+Yd/70yNnK8/WvbfjhqBEFnZo33AzMufUgA/oa8VVVIABGTx9aw3mzfaCLNzGF00kHJd/MBHden9P1rAkPzEe9bF1Jtt4QmB5Y2kA8fX8ayJQN52961MGM781LblfMwx2+/WiKNZTsOFbsc9auDTmaLcu0unofvCpBI0bC1JcMrYRuj5yOme2c/5zivQdD0gS26OVVhjIKuCMZx07HP4c1xmgWqSShyuXz82HwwPuOp65yK9Z0O3ZIlBPJ6ALgL2wOc/55rGodNI2dM09IVAUDjvj/P8An6VvwQgAVHaQhUAA4q+iAVhY6kwSPFSrHSqKlUZppEuREUppTmrO3imMMU3ElSKrR1E6elWmqFhU7FrUg0yH7NrzyoDsuoSHA6b1+6fxBYf8BrpqwIOLmFsZIcYz78H9Ca3hXdTd4nDVVpC0UUVoZiUUUUCClpKWgCAk0maM02kMdmjNJSUAPzS0zNKD1oAeKU84puaZPKIYGkY4VQSSfTGT+lAHzx8XL43XiWZP4Y9qDPpjP9TXnABEiY4IJIPuK6PxddNea1M5OSzFj79f6GudbruOOlckHd3OuasrEUkuc/kapyEZ4qxMRyfzqsynGa6DkY6J2DArwR3rtNBhkuSPMmVHXGBglmH0x/P+lcOhKtxXW6BP86eaUbBwAOv1z6/zqJbF09z0PTtBgG2XZGxBwQwDAfTrXc6VYeUoyAPYDGaxvD0YktUZlx6Drj3/APr111uoUCuVydzujFFuNcYqYVCG2jJFZl5qd0r+Xa2kkjeuOP1oA3AwqVSDXJO3iCQL96Ik87EyQPp/9eql1deIrUDbLcd/m+yknpjpnB6/mO4rSMSJHe7ajfk1523jHX7eQeZbFoyTyc/y2gjpxnNdNoWu/wBrRb34b0IxiiVhRizZYVA4xVhjiuf1/XotJgLYy/YYrM0RrLjIz2Nb68qPWvF5PE/iC5k329vIsR6YjyfwxzXqPhm8vL3Q4Zb6MpOCVyRjeB0OO3HH1BrrpaI5a29zYopBS1sYCUUUUCClpKWgCtSUUUhhRSGloAKUUlL1oAdmsfxVcfZvDGoyA8/Z3UfVhj+tbArkPiPceR4WZd2PNmRfwGW/9lqKjtFsuCvJI+c9VcyalIR2rLfAz6YI/lV+di8skvrzWfMflx0wf6VzU9Dpq7FR/vHmrdrYyTpuVSRUFvBNeXcVtCheaVxGiDqzE4AHuTXsfhv4ZxLD5eoXkokCBt0G0ICSeATkkjHXA4b61tOSijClTc3oeMXdo9tLhkZQ3QGtrQIXeePavJPGTXr2q/DXTms5IpL5zEVOGYL8jdiTjgep49+M15//AMI3qXhnUHtb1MBD82P4l7EZwcHHUenrxU8143KlT5JWPVvDYAtFXjgc49a6mEcCuT8MMTbKCAABgLjGP8K6yI5xXK9zsitC2oyKWJFV8kU6MfKKztVe/ij/ANDSJic5Lk8fgBz+YqkJK+hfutSt7RC0sgUKMn2965C/+J2gQuyb5JgP4ol8we+CMj9e9ZbeHbrV9QE3iGSe8tlORaROYo8+pGDn6E/jXKePvDFxNrpuNH0E2+ntDHGEUAkEHJbGflJ4HuPcmtY2a1ZEk4uyR6RpfiLTNegEtu6yJ91t3XOPStywgiR8xxqo9hXnHhnRF0/UbZre3YJNbRpPmMrslVOTyBxkdep3Z4r1K0h8qNQeuKye+ho7KNyS5fy4ifauTu5bKMyXt/LHHEn8cpAA/Ouo1XIsnYf3TXnHi7TLjUdD8m1jke7jmSVAy5idRnKnPB6g85HGO5qrXZCdoky/Enw2tyLdJXK5xv8ALIH6ivT9HuY7rTIJIuUZchh0YHnI/OvnvRvBF9LYG2u4JIJ3mEm7b90AHgjpznoPT2r6C0S1FnpNrCsjOEiVMsSTwMdT9K6KaS2Oes20ro0qSlorc5hKKKKAClpKKAK1FFFIYUUUUAFKKSloAUV5z8XrkRaPbxZ+bLOR/wABI/z9a9G/WvHPjFfbrq1tVxlFzx65yf5VlWfuGtFe+eRXA2o4A5xj/P5VnSjLMPetGQ7lxjg9DVRbeS7ukt4I2knmYJGijlmJwAPrWEDepsX/AAhsg8X6Sz/dNyi5PYk4B/AkH8K+h7SFUiuZrmR2VHKqoOAMfSvCbLwqkXiKHTLrUWN+jgyx2MPm+QRyQzsygEY5K7sH16V75p15Y6xYPNYzxzWtxIzQzA8MckEe3INOstmPCTSTiZl0PMZGMbKh5UO5Y/X2rH1OZJA2nauGNg2DaXipvezcjBBHVkPUr6HjkcbjGZtRjtLqBokDFUc9HPWqWt24khZdvCkcVhGTi7nTVipKzF0Wyn01poblUDhtwMZ3I6HlWU91Pr6g9810kDAmvn7xD4o1hNYmtLbUriG2tnKxpFKQAc5Y+2T/ACFO0r4meI9MwrXEd3GD925TJ/76BBraVFvVHNHERXuyPpCI8VKU3V4zY/HAIALvQyD/AHorjP6Ff61pr8c9Oxj+xLs/SVaSpSB1YdGentaq3t9KrzWkjqVNzLtPVc8V5pN8drYA+T4flb033YX/ANkNZF38cNUkBFpo1nCfWaRpf5bar2MhKvHqevWunRxyGQ5PqTVua4igjaaR1SIdWY4Ar51v/il4tvwVGoraIf4LaNVx9GwW/WuWvL671GUy3t1Pcyn+OeQufzOapUWRLEK59Iax468MWtu0c+uWjMVIxC/nH8kzWDbeMPCmoOsa6zHHJ/01Voh/304A/WvBc4o4J9/Wr9giViJLofSVteaXlXi1W1lXti4RgfyNdBpPivTJtWi0JJ1a6aEyxlCCjAE5TIPDADdjHQ/Wvk0denFen/A8b/Hcg4OywlYe3zxr/WnCnydSalb2i2PomiiitjESilooASloooAq0UtBpDEopaSgAFLSCloAOpxXz/8AFC6+0eJJyG3BW2gj2UAV74+AMnAA556V82+LpTd63cSd5HLfiSf/AK9c2IeyOnDrVs5Obh9voDSWGq3GiaxbalbBDPbSK6hxlW55B9iOP8KS4/1hH+z0qrcLulH+elRHQuexs6l4mjkS/wD7L0/7B/aMjNdO05mkYE5KK2F2pk5xjJ4yTjjofhZ4zj0S9fSdRlC6fdvlHY8Qy9Mn0B4BPbA6DJrgim63b2J/nVUjAPrWr95WZgm4STR9Y39ut5BJC7srEfK6nDKR0IPrWAVnFqI7uRZJVGGkUbQ3vjscdfevLvBnxG1CwurTTdRnE2ml1jMjrl4VPGQe4HHBzwMDHFejeLZ5NN07VASNy2cksEq/dkBU4YfjXLKlJM7Y1otWPCry6F7fXF2F2rNI0gHoCScVRAqRvlHpSDk+1ehax5jd2Apy5OabjJzSigB2eKXNIKM80wF64o70A8UUAFL9OKT8KXrQA7aScCvYfgHZxyavrF6R+9t7eOIHH8MjEkf+QhXkWQcHPNfQnwQ09rbwjd3rxBWu7s7H/vRqoA/J/MFAHptLRRTAKKKKACiiigCtRRRSGFFFFABRRR70AUNYna30e8mUDKQuRk99pxXzjreRdyFskg9T+NfQHiydoNAuCpG3gMD/ABKWAIH4V8/ayD9pYdSGBOPcgVxYh++kduGXutnOTLm5kx1qvMv7z29B+NXmU/aZSemf6Cqc/CknGdoJ/L/69KL1KktCKEbrf8DVVlBbA9KuQgrAB34qsRiYED/OK1juYS2RCMqwYHGK9T1rxCmo/CW3hnybuOWOOJweiHJdT6jKY/LsK8vxz04rqLHT7nWvCrW1qA89vOZFQ8FgFOQPf5v0pydmmTFXTSOaccD600nFBY5IPBHY0ma3MB9HeminUAKDS5pO1HegBc0Z5pKUc0AFOpKcvJ/GmBNGM4HJPtX1v4S0f/hH/CemaWUVJIIB5wU5Hmt80mPbcW/Ovn74WaAda8b2ZZf9Hsj9rl5/uEbR/wB9lePTNfTVABS0YopgFFFFABRRRQBXpKWikAlFFFAAaOwoFHTJoGcn47uPJ0uOMn5ZHOfoFzXh2rfJdFSQwG059QAf6ivX/Hs4EyRk7lOAVJ75Gf0P6V5FqKmaUMpBVidpHpgf4151V3qs9CirU0YJB3Tc9Gb/AAqlffIT6HA/z+FaQTdE7YyTkjHuTWbeKWmPf5if5f4VcdxT2GxD90OenNU5DtLE+v6Vb+4jH0ANVxH5jZPQAgn3rSJlIaikEE9+1d94ERljncZwJP0wP8f0riY49wwevf8AlXqPgay8vTPMI/1khf8ADgf0rOrL3S6UbMwviH4a8o/27ZxAI3F2qjoxPD/iTg+5Hqa893Yr6PazjuLV4JYxJE4KSIf41IwR+NeJ+LPCs3h3UP3eZLGYkwS4/wDHW9x+o546C8PVuuVmeIpWfMjnwadnvUY4pwP5V1HKPzRmkHalzQAtHNIPWlznpTAXNTQLukA/Wofb866rwF4YfxT4mtrDDeR/rLhh/DEPvfQnIA92FAHtvwg8O/2P4UN/Ku251IiU57RDIQfqW/4FXoVNjjSKNY41VERQqqowAB0A9qdQAUtJS0wCiiigAoopaQFaiiigApDS0lAC0jHCnnHv6UtI/C+vBoA828WsJdSPChUbafoMg/59q8yvthy8akAEnHr8+P8AGvQNemMlxLcbdxjcyc9u5/Rq89uiBEwzwAGHHYkn/CvLvebZ6kdIIz4k2xEZxhME++Tms6+hU3UigcEFs+27Fa0ZGxuOhJwPxqhMm2d0bBBiVQQenTP/AKFWkdyXsZ08WQcclgv500RYQqo4XJP+NW5MNKynrkf1qukoRACM9f51p0MupJp8DXc8cacs3H45r2zQ9OFrYQxKMBVC1wfgLw/JJIt5Khw3+rBHb1/GvXre2EaAYrnqSu7G0FZEK25C8CqOo6ZbahZyWt3CssEgwysP1HofcciumigVlGR1qG6sDglR+NTbqh36M+ffFPgK70Uvd2Za5sVyxbHzxj/aA6j/AGhx1yB3448GvpuWIq3IwRXCeJvhzZ6ir3elbbS56mLGInPtj7p+nHt3rqpYjpM5qmH6wPIAacDkYq1qOlX2k3Rt722khkHQMPvD1BHBHuKqV1J3ORpocDxS4pBiprW1uL25jt7aGSaaRgiRxruZiegAHWmAkMbTSKiKSxOAFXJ/SvqP4b+DR4T8Pr9oQf2ndBXuCcEoP4YwR2XPvyT2xXMfDX4UyaHdJrPiBInvEw1vahtwhb+8xHBYdsZA65Jxt9aFMAooopgApaKKACiiigApaSlpDK1FFFAgoPWijvQAtRTtsgdh1wakqpqb7LCUjPCnp1qZbDS1PLdbVfs11LuZS8Un4krjP6CuDu28zcBwfJXbk9cr/wDWNdxrMgEE4z8wXavPqQf61wlwuyQjgbY1QL6cEf0ryobnqdCmWx52Oylv/HR/jVW6dhLuDAjOVPf+HP8AIU6S4Cyy8A9fyA4qhtuLzUVito2klYghIx6YH9P1rpijKT0IrmQrOSCOTgc+laVh4W1fVbY3NrbjZjKq/Bk+mf6113h34ehnS41PErA5WIcqPr6/yr1Gw05IIwqqAAOwqJVbfCCp33PPfB/jG0tZ/wCy9fh/s28j+XfINqN06/3f5H16CvVVjBVSKydb8I6V4jtPJvrcFwDsmTh0+h/LjpxXECDxZ8Nz+43axoK/8s+d0S+3Ur+GV6nAzS5Yy20Yc0o6PU9YiXpVkKCOQK5vwx4x0bxPEPsFxtuAMtay/LIo+n8Q9xkdK6ZafK1uLmTM+901ZQWXg1jTWckWQVNdUajdFYfMAfrScUxxk0ecazpVvfwGC7to5o/7rjp7g9Qfcc1w03w2S5ux9guZbfJzhl3YPscggfXNe4z2Fu5yY1qsbeKJvkQD6UQlKD0Y5RjJao8t0P4GTXw8y+1pIVRhujhgL7h3AYsMfka9Y8MeA/D/AISQHTbTdc4Ia6nIeU/jjA+igA1JpWrWsWoXOnyusUkcUU4Z2ADCRnQAe+Yz/wB9CuhBr0IaxucE0lJpBS0lLmrJCijNFABS0lFAC0UUUAFLSUtAytRRRSEFFFFABWdq5xZsMnFW7i7t7RQ1zPFCh/ikcKPzNcb4p8f+GrG1ZRqsFzKVOI7VvOPQjGV+UHPqR0qZ7FR3OJ1sMMyD+Fdx/lXDarqtrBeSgEMd5O1OT0H+BqHxB4qn1WZlgDQQdACfmI9+w+n61zJI61yUsO1rI6amI0tEkubx5pCRwufu0+z1W906486zuZIWzn5TkH6g8H8apHk03NdXKrWOXmd7ns3gz4k2l5LHY60I7W4YgJcLxG59Dn7p/T6dK9ajVQOK+QA2OnSvR/A3xOudE8vTtXL3OmgbI5OskA7f7y+3UDp02nnqUOsTpp1+kj35QKkRQQQelZ2n6la6lZxXdpOk0Eq7kdDkEf5z9CCOtaEbD1rBG+5x/iL4Y6RrUv2yxZtM1EHes8A4LepXjn3BBzWGnibxn4FxF4lsG1XTV6X0LZZRnqWx/wChgEn+I16opGMU7hgQeQfWtVLuZOPY5/QfGeg+I1VbC/j+0MP+PaU7JR6/Kev1GR71uMetcfrvwt8M63ukW1axnbkyWZCA/VCCv1IAJ9a5+Xwr8QNATZo/idL2H+7dD5sdlUOHAH0YUOKewJtHpErCqchGCSeleff238TYmWKTQdMYk7RI7Dk/hKP5UjaT8RtbDfb9RtdItJBh0gAZ0x3Xbk/+RBUcnmVz+RraLcrq3i3xBMED2scMFkCRlXKmVnXnrgvgj3qrrWma54ZRtS8IX1xFHH80umMTJCy9/LRjhfoMf7JHQ9BoWh2nh/TUsbJSIwdzMxyzt3Zj3PQfQAdBWm6hgQa0U2tg9mpLU8/034+KY1GpaH0+9Jaz55/3GHH/AH1XW6P8YPCGrFUkvJNPlbOEvU2j6lwSo/EivNfiB4ClSefWtKi3K2XuYVHJ9XAH6gdeteWtxyCcV0wmpK5yTg4s+07e6t7yBZrWeOeFhkSROGU/QipRXxXb3c9pcC4tpnhnHSWNirD6Eciu58N/F3xLoTpHc3B1S0B5ju2JfGT0k+8D0HO4DHSruQfTlFcV4d+KXhjX7cs16mn3CjLwXrrH/wB8tnaw/HPqBXZoyuiupBVhkEdxTAdS0lFAC0d6KKAIKSlpKQBXIfELxtH4L0RJY1WTULklbWNwdvGNzNjsARx3JA9SOvr5x+M+rNqHjl7QMfK0+FIQO24jexH/AH0B/wABoA4jVNav9b1CW/1G6kuLmT7zv6egHYew4FUd5HApDxSHnmkAu7PFI6jYHBHJIK9x0/Tn+dMNLu7GgBnf3oxUhUdR+dMx60gE7YpRkHrR1pQPSgDpfCfjHUPCl5mFjLZuczWzHg9tw9G9+/evf9G1yPV9Nh1CyPm28o4YdQe6kdiO4r5cXiuy+H/jaTwfqpE4aXS7lgLmIfw/7a+49O449CMalLm1W5vSquOj2PodL4j7wIqxHdBu4pYltb+1jubZ1kilUOjqchgRkGmG02ngVytSR1pxZZE/vSO4dCO9QqhFS4BFPVisjPlSVruHClo1yTh9uG4wfcdf0q667oSO+KZImDk05W4waXSwW1uVGTAxUZBJq60YIJqAjDU0MYsYIwa+afF+nxaX4t1WxhULFHcEogHCq2GAHsAcfhX012rw/wCLmkfZdfg1JBhLuMo+P769/wAQR/3zW1F2kY1leJ5s36ZoFOI5P9Kb0rqOMkRyrA5IPtXSeHPHev8AhiVG06+cQg5a1l+eF/X5T0PuMH3rl/pTs8H8aAPrHwN43sfGulGeFfIvIcC4ti2ShPQj1U84Ptiuqr5G8DeIn8M+LrPUVcpAJAlwM8GJjhs+uPvAeqivrjOehqkAtFJmloAhpKU0lICvqF9BpmnXN9dPst7eJpZG9FUZNfIOtalLrGtXuozDa91O8xXOdu5idv0HSvafjd4q+yadB4ctpMTXOJrkqekYPyr+LDP/AAH3rwfGaQAe9GOMeg5peD09aD0OD34oAaR0puKlPf2GKTHQ+gzQBGDt7cd6cwHalA5Hrx+ppAeOnHagBtA/pS47Y5o+lAB36U4HpSdjx+FL07/59aAPRPht8Q5PDVymlajIW0eVvlY9bVj1I/2T3H4jnOfoJZlkQOrBlYZDA5BHqK+Oc4r1L4Z/ET+ymi0LWJcWLHbb3DH/AFJP8LH+56H+H6fdxqQvqjelUtoz3Tigios807fXMdQj/NxTCKeTmkNIY3cRxULck1KelRGkAlcB8WrIXHhEzgfNbzo+fY5X/wBmr0CuU+IkQl8C6oD/AAxhvyYH+lXF2aJkrxZ85t60zH+f8/54p79Kbj6V3HniD8qXPFAOOnejBpgOjwGx156V9heFbp77wjo13KSZJrGF3J7koMmvj1OASR719l6LZf2boOn2OMfZraOHH+6oH9KEBepaSiqsBFVXUtQt9J0y61C6Yrb20TSyEdcKMnHqfQVarzX426qbHwQllGy7765VGQ9Si/OSP+BKn51IHg3iDWrnxDrt5qt3/rriTeQDkKOiqPYAAfhWbgZx/npTepxS5xk+xpAOH8PHPJpBnKDHWg8ZwegxS9D/ALooADyPqaRjnd78UuQMZxwM0nQfQZoAAec+5pMnIHsBSjjg+woJBOfUmgBvX60o5xQRjOPf/Glb9Dzj60ANxn6/1pcUpyeT9OPbvSdun0oAB1/z0pc8+1JnuPwo9xQB6p8OviWdNEOi67L/AKEPlgu2OfJGOEf1X0P8Pfj7vtqgOgZGDKwyCDkEeor4/B7dq7bwZ8SdT8LBLSXN7pYJ/cO2Gjz3Ru3rg8cnoSTWFSlfVG9OrbRn0SykHpTeayfD/i/RPE8AfTrxWlAy1vJ8sqfVT/MZHvW0QD0rnaaOpST2GEVGRU2KYwpDIu1cr8QpRF4H1Uk/eiC/mwH9a6tjivKPi54hiW0i0SCQGaRhLOAfuqOgP1PP4U4JuSJm0kzx5iR0PWmrjoM0p7Cjnpn8K7zzxR15oxxQPzp2OPwpgX9EgW513Trd/uS3UUZ+jOB/WvsjvXyB4YQyeK9DUdW1C3H/AJFWvr6mgFooopgf/9k=;" vertex="1" parent="PX8XIWMq1hGFddcC8-st-18">
          <mxGeometry x="185" width="256" height="256" as="geometry" />
        </mxCell>
        <mxCell id="PX8XIWMq1hGFddcC8-st-4" value="" style="sketch=0;html=1;aspect=fixed;strokeColor=none;shadow=0;align=center;verticalAlign=top;fillColor=#2D9C5E;shape=mxgraph.gcp2.check" vertex="1" parent="PX8XIWMq1hGFddcC8-st-18">
          <mxGeometry y="80" width="177.5" height="142" as="geometry" />
        </mxCell>
        <mxCell id="PX8XIWMq1hGFddcC8-st-9" value="&lt;font style=&quot;font-size: 20px&quot; color=&quot;#000000&quot; face=&quot;Times New Roman&quot;&gt;&lt;b&gt;With Mask&lt;/b&gt;&lt;/font&gt;" style="text;html=1;align=center;verticalAlign=middle;resizable=0;points=[];autosize=1;strokeColor=none;fillColor=none;fontColor=#FF0000;" vertex="1" parent="PX8XIWMq1hGFddcC8-st-18">
          <mxGeometry x="20" y="236" width="110" height="20" as="geometry" />
        </mxCell>
      </root>
    </mxGraphModel>
  </diagram>
</mxfile>
